<?xml version="1.0" encoding="UTF-8"?>
<svg width="36px" height="40px" viewBox="0 0 36 40" version="1.1" xmlns="http://www.w3.org/2000/svg" xmlns:xlink="http://www.w3.org/1999/xlink">
    <!-- Generator: Sketch 55.2 (78181) - https://sketchapp.com -->
    <title>Contact</title>
    <desc>Created with Sketch.</desc>
    <g id="Welcome" stroke="none" stroke-width="1" fill="none" fill-rule="evenodd">
        <g id="Desktop" transform="translate(-601.000000, -2564.000000)" fill="#FFFFFF" fill-rule="nonzero">
            <g id="Contact" transform="translate(0.000000, 2399.000000)">
                <g id="address" transform="translate(608.000000, 170.000000)">
                    <path d="M11.002796,0 C4.92648351,0.00621917421 0.00311453309,4.92431387 0,10.990977 C0,16.8935387 10.1477151,28.3311654 10.5780869,28.811738 C10.7866899,29.0443916 11.1447196,29.0641093 11.3777433,28.8558376 C11.3932452,28.8419858 11.4079684,28.8272859 11.4219131,28.811738 C11.8522849,28.3255116 22,16.8935387 22,10.990977 C21.9968147,4.92650472 17.0768434,0.00932876132 11.002796,0 Z M11.002796,27.5735569 C9.0661227,25.312039 1.13255749,15.8193177 1.13255749,10.9853232 C1.13255749,5.54276834 5.55158445,1.13075895 11.002796,1.13075895 C16.4540075,1.13075895 20.8730345,5.54276834 20.8730345,10.9853232 C20.8730345,15.8193177 12.9394693,25.3233466 11.002796,27.5735569 Z" id="Shape"></path>
                    <path d="M10.9943006,5 C7.6806292,5.0031339 4.99687158,7.69201973 5.00000274,11.0056912 C5.00313938,14.3193626 7.6920252,17.0031202 11.0056966,16.9999891 C14.3171601,16.9968524 16.9999918,14.3114566 16.9999918,11 C16.993724,7.68667785 14.3076159,5.0031339 10.9943006,5 Z M10.9943006,15.8660845 C8.30997321,15.8660845 6.13390732,13.6900186 6.13390732,11.0056912 C6.13390732,8.32136374 8.30997321,6.14529784 10.9943006,6.14529784 C13.6786281,6.14529784 15.854694,8.32136374 15.854694,11.0056912 C15.8515601,13.6887365 13.6772748,15.8629506 10.9943006,15.8660845 Z" id="Shape"></path>
                </g>
            </g>
        </g>
    </g>
</svg>