<?xml version="1.0" encoding="UTF-8"?>
<svg width="100px" height="80px" viewBox="0 0 100 80" version="1.1" xmlns="http://www.w3.org/2000/svg" xmlns:xlink="http://www.w3.org/1999/xlink">
    <!-- Generator: Sketch 55.2 (78181) - https://sketchapp.com -->
    <title>Practicing Areas</title>
    <desc>Created with Sketch.</desc>
    <g id="Welcome" stroke="none" stroke-width="1" fill="none" fill-rule="evenodd">
        <g id="Desktop" transform="translate(-463.000000, -736.000000)" fill="#ED4932" fill-rule="nonzero">
            <g id="Practicing-Areas" transform="translate(0.000000, 594.000000)">
                <g id="Icons" transform="translate(163.000000, 145.000000)">
                    <g id="family" transform="translate(313.000000, 0.000000)">
                        <path d="M49.4999383,32 C48.6728073,32 48,32.6729306 48,33.5000617 C48,34.3271927 48.6728073,35 49.4999383,35 C50.3270694,35 51,34.3270694 51,33.5000617 C51,32.6729306 50.3270694,32 49.4999383,32 Z" id="Path"></path>
                        <path d="M59.5000617,32 C58.6729306,32 58,32.6729306 58,33.5000617 C58,34.3271927 58.6729306,35 59.5000617,35 C60.3271927,35 61,34.3270694 61,33.5000617 C61,32.6729306 60.3271927,32 59.5000617,32 Z" id="Path"></path>
                        <path d="M13.5000617,32 C12.6729306,32 12,32.6729306 12,33.5000617 C12,34.3271927 12.6729306,35 13.5000617,35 C14.3271927,35 15,34.3270694 15,33.5000617 C15,32.6729306 14.3271927,32 13.5000617,32 Z" id="Path"></path>
                        <path d="M23.5,32 C22.672903,32 22,32.6729306 22,33.5000617 C22,34.3271927 22.672903,35 23.5,35 C24.327097,35 25,34.3270694 25,33.5000617 C24.9998766,32.6729306 24.327097,32 23.5,32 Z" id="Path"></path>
                        <path d="M72.4044089,56.0419582 C72.256724,55.4669392 71.6736897,55.1206372 71.1006438,55.2694825 C70.5283113,55.4180411 70.1841413,56.0045318 70.3319689,56.5796942 C70.5970883,57.6115737 70.7631802,58.6715588 70.8283899,59.7425855 L50.5653093,59.7425855 C50.2872051,59.6235666 49.9922634,59.5368119 49.685621,59.4853326 C49.6857637,59.4608119 49.6866199,59.4364345 49.6866199,59.4117703 C49.6866199,54.6267805 47.2123628,50.4117908 43.4824275,47.9901148 C45.1196608,46.5974503 46.9834869,45.5499406 48.9857231,44.8865895 C49.7699512,47.0505825 51.8391093,48.5665677 54.2151951,48.5665677 C56.5881418,48.5665677 58.6550168,47.054741 59.4416707,44.8953367 C63.4026223,46.2114275 66.7950941,48.9986207 68.8516954,52.8032103 C69.1486348,53.3527047 69.8706498,53.5300859 70.388189,53.1829236 C70.8418028,52.8786367 70.9924842,52.2574441 70.7326444,51.776493 C69.8953353,50.22767 68.8613984,48.8289829 67.6724993,47.6026581 C68.6614887,46.8605824 69.5149219,45.7299029 70.2203848,44.221661 C73.0198339,38.2368747 73.0131275,26.8027436 71.0438529,21.6401915 C69.7319544,18.2009755 67.4441942,15.2798503 64.4282832,13.1927177 C61.4103745,11.1041512 57.8787793,10 54.2153378,10 C49.8432943,10 45.6240725,11.5974343 42.3346234,14.4977671 C41.8904272,14.8895257 41.846193,15.5689372 42.2360241,16.0154731 C42.6257124,16.4620091 43.3019237,16.5063185 43.7462626,16.11456 C46.6450245,13.558665 50.3631165,12.1510873 54.2153378,12.1510873 C57.4431445,12.1510873 60.5550864,13.1238875 63.2144133,14.9642352 C65.8725986,16.8038658 67.8889611,19.3785456 69.0453267,22.410086 C70.8296741,27.0882456 70.8286753,37.8649048 68.2832156,43.3066495 C67.6372547,44.6874121 66.8851319,45.6259406 66.0419725,46.1088992 C64.2095383,44.6168611 62.1111286,43.4797288 59.8533334,42.7663324 C64.2678988,40.6440677 67.324762,36.1113119 67.324762,30.8740503 L67.324762,28.6982988 C67.324762,28.1746157 66.9494855,27.7270759 66.4357989,27.6383137 C61.1382633,26.7230153 57.4719681,21.3202744 57.4362954,21.266931 C56.9684125,20.5635723 55.8729759,20.6757082 55.555489,21.4586518 C55.5303755,21.5203122 52.9315494,27.6228269 42.1755232,27.6228269 C41.5843556,27.6228269 41.1053428,28.1043515 41.1053428,28.6982988 L41.1053428,30.8740503 C41.1053428,36.1078704 44.1582107,40.6381885 48.56821,42.7621739 C46.3278231,43.4685439 44.235121,44.596929 42.3868482,46.1080388 C41.5442595,45.6247934 40.7925648,44.6865517 40.147032,43.3065061 C37.601715,37.8647614 37.6007162,27.0881022 39.3850636,22.410086 C39.8251217,21.2564631 40.3973115,20.1557534 41.0855088,19.1386437 C41.4178355,18.6475115 41.2909835,17.9785679 40.8022678,17.6445981 C40.3136947,17.3107716 39.6478999,17.437964 39.3155732,17.9292396 C38.5346269,19.0832927 37.8858122,20.331844 37.3865374,21.6400481 C35.4174055,26.8024569 35.4105563,38.2365879 38.2101482,44.2213742 C38.5667323,44.9836688 38.9618429,45.6473067 39.3923408,46.2154426 C38.4554335,45.9840011 37.4807133,45.8503558 36.4793098,45.8274124 C36.3725772,44.9855329 36.2996622,43.7941968 36.5029965,42.8659928 C36.6301339,42.2859549 36.265131,41.7122265 35.6879471,41.5844604 C35.1110485,41.4568377 34.5398576,41.823502 34.4127202,42.4035398 C34.2136666,43.3120985 34.2082444,44.3203177 34.2660341,45.1712311 C32.5854228,44.0894497 32.263798,42.4543021 32.2455336,42.3536379 C32.1472196,41.7715925 31.5997154,41.3773962 31.0183934,41.4724679 C30.4350737,41.5679698 30.039107,42.120619 30.134139,42.7068229 C30.1529742,42.8235475 30.5021384,44.8154649 32.3087455,46.3873748 C31.9762762,46.4870352 31.649229,46.5990276 31.3278896,46.7230654 C29.3116697,44.9027933 26.9632659,43.563042 24.4290788,42.7634645 C26.6701792,41.6848378 28.5605458,39.9844449 29.8785799,37.8862708 C30.4250854,38.1694784 31.0355163,38.3221955 31.6613578,38.3221955 C33.8129911,38.3221955 35.5635208,36.5630101 35.5635208,34.4007379 C35.5635208,33.5631604 35.299971,32.7866696 34.8530637,32.148843 C37.6460918,23.9987732 36.4139575,19.2246815 34.858914,16.6413978 C33.3077232,14.0647104 30.7303008,12.4083402 27.6015215,11.9775778 C25.3765451,11.67114 23.556525,12.2679553 22.5361437,12.7361441 C21.0480222,10.9555927 19.3541407,10 15.8410953,10 C11.8092264,10 6.09275091,12.1014722 3.06913463,16.7155337 C-0.285666815,21.8349236 0.929915401,27.8545552 2.67930359,32.2030468 C2.25522678,32.8304055 2.00708762,33.5869641 2.00708762,34.4008813 C2.00708762,36.5631535 3.75761733,38.3223389 5.90939334,38.3223389 C6.53509214,38.3223389 7.14566571,38.1694784 7.69202847,37.8864142 C9.00835033,39.9820072 10.8957204,41.6808227 13.1331109,42.7597362 C10.1624328,43.6953968 7.45701686,45.3741368 5.23089899,47.7048996 C4.85933236,48.0939337 4.83578839,48.7204319 5.17867418,49.1357075 C5.58120469,49.622968 6.33846433,49.6513604 6.77509792,49.1943566 C8.69200501,47.1872391 11.0103011,45.7267482 13.55519,44.8850121 C14.3389901,47.0498655 16.4082909,48.5667111 18.7850902,48.5667111 C21.1601771,48.5667111 23.2284791,47.0520164 24.0134207,44.8896008 C25.8986505,45.5146651 27.6633066,46.4792918 29.2299079,47.7516468 C25.2879342,50.1284398 22.6437325,54.4654597 22.6437325,59.4119137 C22.6437325,59.4365779 22.6445887,59.4609552 22.6447314,59.485476 C22.338089,59.5369553 22.0431473,59.62371 21.7650431,59.7427289 L2.17203809,59.7427289 C2.3301394,57.168766 3.07669723,54.6607654 4.35492068,52.4328177 C4.65014777,51.9183119 4.4744955,51.2605533 3.9625212,50.9638664 C3.4506896,50.667323 2.79602459,50.8437004 2.5007975,51.3583495 C0.864705743,54.2096408 0,57.4660265 0,60.7756122 L0,60.8180575 C0,61.4120048 0.479155427,61.8935294 1.07018038,61.8935294 L19.668203,61.8935294 C19.4875566,62.3447974 19.3869596,62.8369334 19.3869596,63.352443 C19.3869596,65.5147152 21.1374893,67.2739005 23.2891226,67.2739005 C23.852751,67.2739005 24.4009687,67.1524439 24.9025266,66.9221495 C27.3275553,70.5827692 31.4704376,73 36.1649622,73 C40.8596294,73 45.0025117,70.5827692 47.4275404,66.9221495 C47.9290983,67.1524439 48.477316,67.2739005 49.0409444,67.2739005 C51.1925777,67.2739005 52.9432501,65.5147152 52.9432501,63.352443 C52.9432501,62.8369334 52.8427958,62.3447974 52.6620067,61.8935294 L71.9298195,61.8935294 C72.5209872,61.8935294 73,61.4120048 73,60.8180575 L73,60.7756122 C73,59.1728722 72.7998048,57.5801699 72.4044089,56.0419582 Z M31.6610724,36.1715383 C31.3796863,36.1715383 31.1117131,36.1041421 30.8697097,35.9803911 C31.3116228,34.928006 31.6206909,33.806217 31.7770799,32.6363903 C32.6944385,32.6969036 33.4228747,33.4640735 33.4228747,34.4010247 C33.4230173,35.3772665 32.6325108,36.1715383 31.6610724,36.1715383 Z M4.85647854,17.8986962 C7.44431738,13.9497066 12.364436,12.1510873 15.8408099,12.1510873 C19.2357075,12.1510873 20.2002967,13.1317743 21.3853431,14.7471332 C21.7235201,15.2082956 22.3669125,15.3184239 22.8422153,15.002522 C22.8609078,14.9899031 24.7521306,13.7561217 27.3107178,14.1088765 C29.7869725,14.4497294 31.817176,15.744741 33.027336,17.7550132 C34.8292344,20.7484101 34.8369397,25.2209395 33.0642929,30.7428427 C32.6977204,30.6003068 32.3047502,30.5116879 31.8946571,30.4871672 L31.8946571,28.6982988 C31.8946571,28.1746157 31.5193805,27.7270759 31.0058366,27.6383137 C25.7081584,26.7230153 22.0418631,21.3202744 22.0061904,21.266931 C21.5395918,20.5651497 20.4461528,20.6672478 20.1280952,21.4519122 C20.1216741,21.4672556 19.4570208,23.0083352 17.5058679,24.5253242 C14.8997646,26.5516568 11.1789615,27.6226835 6.74556094,27.6226835 C6.15453599,27.6226835 5.67538057,28.1042081 5.67538057,28.6981554 L5.67538057,30.4870238 C5.23346742,30.5134087 4.81124559,30.6139295 4.4207011,30.7765408 C2.48167695,25.6306226 2.62593726,21.3024933 4.85647854,17.8986962 Z M5.90910796,36.1715383 C4.93752687,36.1715383 4.14716299,35.3772665 4.14716299,34.4010247 C4.14716299,33.4640735 4.8755991,32.6969036 5.79295772,32.6363903 C5.94920405,33.8055 6.25798676,34.926572 6.69947184,35.9783836 C6.45604148,36.1025647 6.18621333,36.1715383 5.90910796,36.1715383 Z M7.84270986,31.6066618 C7.84228179,31.6014995 7.84199641,31.5963372 7.84156834,31.5913184 C7.82630043,31.3539976 7.81588401,31.1153862 7.81588401,30.8741937 L7.81588401,29.7548425 C15.9338443,29.4627443 19.7045891,25.8743963 21.2272418,23.7709165 C22.7000954,25.5295282 25.7137233,28.5424271 29.754439,29.5687141 L29.754439,30.8741937 C29.754439,31.1153862 29.7438799,31.3539976 29.7287547,31.5913184 C29.7283266,31.5964806 29.7280412,31.6016429 29.7276132,31.6068052 C29.350767,37.3445198 24.5884643,41.8976378 18.7852329,41.8976378 C12.9818587,41.8976378 8.21955605,37.3445198 7.84270986,31.6066618 Z M18.7850902,46.4157672 C17.3941411,46.4157672 16.1747062,45.5717368 15.643754,44.343978 C16.6674172,44.1492459 17.7176209,44.0485817 18.7850902,44.0485817 C19.8497056,44.0485817 20.900052,44.1495327 21.9254275,44.3458422 C21.3940472,45.5725972 20.1753258,46.4157672 18.7850902,46.4157672 Z M54.2150524,46.4157672 C52.8246741,46.4157672 51.6055246,45.5723104 51.0741444,44.3451252 C52.0988064,44.1495327 53.1491528,44.0484383 54.2150524,44.0484383 C55.280524,44.0484383 56.3301569,44.1526874 57.3535348,44.3498573 C56.8211557,45.5744614 55.6035758,46.4157672 54.2150524,46.4157672 Z M43.2457036,30.8740503 L43.2457036,29.7546991 C51.3636639,29.4626009 55.1345514,25.8742529 56.6570614,23.7707731 C58.129915,25.5293849 61.1436856,28.5422837 65.1842586,29.5685707 L65.1842586,30.8740503 C65.1842586,36.9524744 60.2635692,41.8974944 54.2150524,41.8974944 C48.1665357,41.8974944 43.2457036,36.9524744 43.2457036,30.8740503 Z M23.2891226,65.1229566 C22.3176842,65.1229566 21.5273204,64.3286847 21.5273204,63.352443 C21.5273204,62.536805 22.0796761,61.8502237 22.8275182,61.6455973 C23.0234325,62.8311976 23.3720259,63.965462 23.853179,65.0268811 C23.6731034,65.0888283 23.4834674,65.1229566 23.2891226,65.1229566 Z M36.1651048,70.8490561 C29.8895671,70.8490561 24.7840933,65.7183379 24.7840933,59.4117703 C24.7840933,53.1052028 29.8895671,47.9744846 36.1651048,47.9744846 C42.4406426,47.9744846 47.5461164,53.1052028 47.5461164,59.4117703 C47.5461164,65.7183379 42.4406426,70.8490561 36.1651048,70.8490561 Z M49.0410871,65.1229566 C48.846885,65.1229566 48.657249,65.0888283 48.4771733,65.0268811 C48.9583264,63.965462 49.3069199,62.8310542 49.5028342,61.6455973 C50.2506763,61.8502237 50.803032,62.5369484 50.803032,63.352443 C50.803032,64.3286847 50.0126681,65.1229566 49.0410871,65.1229566 Z" id="Shape"></path>
                        <path d="M31.5,59 C30.672903,59 30,59.6729306 30,60.5000617 C30,61.3271927 30.672903,62 31.5,62 C32.327097,62 33,61.3270694 33,60.5000617 C33,59.6728073 32.3272204,59 31.5,59 Z" id="Path"></path>
                        <path d="M41.4999383,59 C40.6728073,59 40,59.6729306 40,60.5000617 C40,61.3271927 40.6728073,62 41.4999383,62 C42.3270694,62 43,61.3270694 43,60.5000617 C43,59.6728073 42.3270694,59 41.4999383,59 Z" id="Path"></path>
                        <path d="M33.1344052,10.5271328 C34.7714696,11.9909887 36.4686727,12.8549824 36.5401664,12.8910731 C36.8278232,13.036309 37.171974,13.036309 37.4596307,12.8910731 C37.5311244,12.8549824 39.2283275,11.9909887 40.8653919,10.5271328 C43.1796833,8.45759358 44.2469012,6.18038737 43.9519549,3.94145477 C43.598552,1.26055672 41.7652306,0.156443519 40.1672774,0.0170286708 C38.9546891,-0.0892060255 37.8065852,0.307791579 36.9999686,1.03542648 C36.1934923,0.307791579 35.0449678,-0.0889149715 33.8326599,0.0170286708 C32.2347067,0.156443519 30.4013853,1.26055672 30.0481226,3.94145477 C29.7528959,6.18038737 30.820254,8.45759358 33.1344052,10.5271328 Z M32.1312512,4.23731112 C32.3495171,2.5813596 33.4011747,2.24519228 34.0085903,2.19222046 C34.0767196,2.18625385 34.1445684,2.18327566 34.2119967,2.18327566 C35.0467902,2.18327566 35.8084079,2.62807377 35.9965343,3.25107477 C36.1339142,3.70628317 36.5401664,4.01611011 36.9998285,4.01611011 C37.4593504,4.01611011 37.8657427,3.70628317 38.0031227,3.25107477 C38.2062487,2.57772143 39.0798731,2.11218062 39.9910666,2.19222046 C40.5984823,2.24519228 41.65028,2.5813596 41.8685459,4.23731112 C42.2383503,7.04394448 38.8219352,9.63097762 36.9999686,10.6781898 C35.177161,9.63010446 31.7614468,7.0435079 32.1312512,4.23731112 Z" id="Shape"></path>
                    </g>
                </g>
            </g>
        </g>
    </g>
</svg>