<?xml version="1.0" encoding="UTF-8"?>
<svg width="100px" height="80px" viewBox="0 0 100 80" version="1.1" xmlns="http://www.w3.org/2000/svg" xmlns:xlink="http://www.w3.org/1999/xlink">
    <!-- Generator: Sketch 55.2 (78181) - https://sketchapp.com -->
    <title>Practicing Areas</title>
    <desc>Created with Sketch.</desc>
    <g id="Welcome" stroke="none" stroke-width="1" fill="none" fill-rule="evenodd">
        <g id="Desktop" transform="translate(-776.000000, -736.000000)" fill="#ED4932" fill-rule="nonzero">
            <g id="Practicing-Areas" transform="translate(0.000000, 594.000000)">
                <g id="Icons" transform="translate(163.000000, 145.000000)">
                    <g id="broken-heart" transform="translate(638.000000, 13.000000)">
                        <path d="M28.179648,39 C28.6456145,39 29.111581,38.7153143 29.2863185,38.2598173 L29.9270224,36.5517033 C30.1600056,35.982332 29.8105308,35.2990864 29.2280727,35.0713379 C28.6456145,34.8435894 27.9466648,35.1852122 27.7136815,35.7545835 L27.0729776,37.4626974 C26.8399944,38.0320688 27.1894692,38.7153143 27.7719273,38.9430629 C27.888419,39 28.0631564,39 28.179648,39 Z" id="Path"></path>
                        <path d="M42.9771987,0.8277686 C37.8175896,-1.02278531 32.5407166,0.480789742 28.7882736,4.87585527 C28.495114,5.22283413 28.1433225,5.85896204 28.0846906,5.91679184 C27.7915309,6.37943032 27.8501629,6.95772842 28.2605863,7.36253709 L31.7785016,10.8323257 L19.1726384,17.8875624 C18.6449511,18.1767115 18.2931596,18.6971798 18.2345277,19.2754779 C18.1758958,19.9116058 18.5276873,20.5477337 19.1726384,20.8947125 L31.0749186,27.3716512 L29.6677524,31.3619081 C29.4332248,31.9402062 29.7850163,32.6341639 30.3713355,32.8076533 C30.9576547,33.0389725 31.6612378,32.6919937 31.8371336,32.1136956 L33.4201954,27.7186301 C33.5960912,27.3138214 33.5960912,26.8511829 33.4201954,26.3885444 C33.2442997,25.9837358 32.9511401,25.6945867 32.5407166,25.5210973 L21.2247557,19.3911375 L33.5374593,12.3937305 C34.0065147,12.1624113 34.3583062,11.6997728 34.4169381,11.1793045 C34.534202,10.6010064 34.2996743,10.0805381 33.8892508,9.67572947 L30.5472313,6.37943032 C30.5472313,6.37943032 30.5472313,6.37943032 30.5472313,6.32160051 C33.6547231,2.67832251 37.8762215,1.46389651 42.1563518,3.02530136 C46.8469055,4.70236584 51.5960912,9.96487852 51.5960912,17.8297326 C51.5960912,28.7017368 42.4495114,35.641314 32.8338762,42.9856998 C31.485342,44.0266364 30.1368078,45.0097431 28.8469055,46.0506797 C27.732899,46.860297 26.2084691,46.860297 25.1530945,46.0506797 C23.8631922,45.0675729 22.5732899,44.0266364 21.2247557,43.0435296 C11.9609121,35.9882928 2.34527687,28.643907 2.34527687,17.8297326 C2.34527687,11.5262834 5.6286645,5.85896204 10.6710098,3.43011003 C14.4234528,1.63738593 18.3517915,2.0421946 21.5179153,4.4710466 C22.0456026,4.87585527 22.7491857,4.76019565 23.1596091,4.29755718 C23.5700326,3.77708889 23.4527687,3.08313117 22.9837134,2.67832251 C19.1140065,-0.328827592 14.247557,-0.849295879 9.6742671,1.34823689 C3.81107492,4.18189756 0,10.6010064 0,17.8297326 C0,29.8005032 10.0260586,37.4918679 19.7589577,44.8940835 C21.0488599,45.8771903 22.3973941,46.860297 23.6872964,47.9012336 C24.6840391,48.6530211 25.7980456,49 26.970684,49 C28.1433225,49 29.3159609,48.6530211 30.3127036,47.9012336 C31.6026059,46.860297 32.9511401,45.8771903 34.2996743,44.8362537 C43.9739414,37.4340381 54,29.8005032 54,17.8297326 C53.9413681,10.0227083 49.5439739,3.19879079 42.9771987,0.8277686 Z" id="Path"></path>
                    </g>
                </g>
            </g>
        </g>
    </g>
</svg>