<?xml version="1.0" encoding="UTF-8"?>
<svg width="36px" height="40px" viewBox="0 0 36 40" version="1.1" xmlns="http://www.w3.org/2000/svg" xmlns:xlink="http://www.w3.org/1999/xlink">
    <!-- Generator: Sketch 55.2 (78181) - https://sketchapp.com -->
    <title>Contact</title>
    <desc>Created with Sketch.</desc>
    <g id="Welcome" stroke="none" stroke-width="1" fill="none" fill-rule="evenodd">
        <g id="Desktop" transform="translate(-600.000000, -2611.000000)" fill="#FFFFFF" fill-rule="nonzero">
            <g id="Contact" transform="translate(0.000000, 2399.000000)">
                <g id="email" transform="translate(607.000000, 223.000000)">
                    <path d="M20.0664062,0 L1.93359375,0 C0.868742187,0 0,0.880338462 0,1.96153846 L0,15.0384615 C0,16.116 0.864875,17 1.93359375,17 L20.0664062,17 C21.1285938,17 22,16.1226256 22,15.0384615 L22,1.96153846 C22,0.884 21.135125,0 20.0664062,0 Z M19.7993984,1.30769231 L11.0409922,10.1927205 L2.20683203,1.30769231 L19.7993984,1.30769231 Z M1.2890625,14.7676821 L1.2890625,2.22608462 L7.49714453,8.46987949 L1.2890625,14.7676821 Z M2.20055859,15.6923077 L8.41255078,9.39053846 L10.5892188,11.5797026 C10.8411875,11.8331333 11.2478008,11.8323051 11.4987383,11.5776974 L13.6210938,9.42466923 L19.7994414,15.6923077 L2.20055859,15.6923077 Z M20.7109375,14.7676385 L14.5325898,8.5 L20.7109375,2.23231795 L20.7109375,14.7676385 Z" id="Shape"></path>
                </g>
            </g>
        </g>
    </g>
</svg>