<?xml version="1.0" encoding="UTF-8"?>
<svg width="36px" height="40px" viewBox="0 0 36 40" version="1.1" xmlns="http://www.w3.org/2000/svg" xmlns:xlink="http://www.w3.org/1999/xlink">
    <!-- Generator: Sketch 55.2 (78181) - https://sketchapp.com -->
    <title>Contact</title>
    <desc>Created with Sketch.</desc>
    <g id="Welcome" stroke="none" stroke-width="1" fill="none" fill-rule="evenodd">
        <g id="Desktop" transform="translate(-600.000000, -2612.000000)" fill="#FFFFFF" fill-rule="nonzero">
            <g id="Contact" transform="translate(0.000000, 2399.000000)">
                <g id="facebook-logo" transform="translate(613.000000, 220.000000)">
                    <path d="M10.5857723,0.00416133496 L7.94737247,0 C4.98322077,0 3.06765572,1.93189975 3.06765572,4.92202699 L3.06765572,7.191411 L0.414862707,7.191411 C0.185629895,7.191411 0,7.37409361 0,7.5994299 L0,10.8875087 C0,11.112845 0.185841559,11.2953195 0.414862707,11.2953195 L3.06765572,11.2953195 L3.06765572,19.5921892 C3.06765572,19.8175255 3.25328561,20 3.48251842,20 L6.94365872,20 C7.17289153,20 7.35852143,19.8173174 7.35852143,19.5921892 L7.35852143,11.2953195 L10.4602552,11.2953195 C10.689488,11.2953195 10.8751179,11.112845 10.8751179,10.8875087 L10.8763878,7.5994299 C10.8763878,7.49123519 10.8325733,7.38761795 10.7548923,7.31104938 C10.6772114,7.23448082 10.5713791,7.191411 10.4613135,7.191411 L7.35852143,7.191411 L7.35852143,5.26762585 C7.35852143,4.34297723 7.58267429,3.87357864 8.80800092,3.87357864 L10.585349,3.87295444 C10.8143701,3.87295444 11,3.69027184 11,3.46514362 L11,0.411972161 C11,0.187052006 10.8145818,0.00457746845 10.5857723,0.00416133496 Z" id="Path"></path>
                </g>
            </g>
        </g>
    </g>
</svg>