<?xml version="1.0" encoding="UTF-8"?>
<svg width="100px" height="80px" viewBox="0 0 100 80" version="1.1" xmlns="http://www.w3.org/2000/svg" xmlns:xlink="http://www.w3.org/1999/xlink">
    <!-- Generator: Sketch 55.2 (78181) - https://sketchapp.com -->
    <title>Practicing Areas</title>
    <desc>Created with Sketch.</desc>
    <g id="Welcome" stroke="none" stroke-width="1" fill="none" fill-rule="evenodd">
        <g id="Desktop" transform="translate(-466.000000, -901.000000)">
            <g id="Practicing-Areas" transform="translate(0.000000, 594.000000)">
                <g id="Icons" transform="translate(163.000000, 145.000000)" fill="#ED4932" fill-rule="nonzero">
                    <g id="parenting" transform="translate(321.000000, 166.000000)">
                        <path d="M23.29195,24 L24.08904,24 C24.5919658,24 25,23.6473004 25,23.2116608 C25,22.7764319 24.5919658,22.4233217 24.08904,22.4233217 L23.82192,22.4233217 L23.82192,20.7883392 C23.82192,20.3526997 23.4143602,20 22.91096,20 C22.4080342,20 22,20.3526997 22,20.7883392 L22,22.8823651 C22,23.4986656 22.5793136,24 23.29195,24 Z" id="Path"></path>
                        <path d="M27.8440841,27.5620593 C28.1410295,27.0870876 28.001198,26.4583861 27.5319511,26.157818 C27.0621805,25.8572501 26.4415804,25.9987873 26.1446352,26.473759 C25.5785013,27.3791739 24.3441096,27.9644069 22.9997382,27.9644069 C21.6558904,27.9644069 20.4214987,27.3791739 19.8553647,26.473759 C19.5584195,25.9987873 18.9372957,25.8572501 18.4680488,26.157818 C17.9988019,26.4583861 17.8589706,27.0870876 18.1559158,27.5620593 C19.0959808,29.0659597 20.95202,30 22.9997382,30 C25.0479799,30 26.9040191,29.0659597 27.8440841,27.5620593 Z" id="Path"></path>
                        <path d="M28.5,20 C29.3289064,20 30,19.5818595 30,19.0653902 L30,17.9346098 C30,17.4181405 29.3289064,17 28.5,17 C27.671875,17 27,17.4181405 27,17.9346098 L27,19.0653902 C27,19.5818595 27.671875,20 28.5,20 Z" id="Path"></path>
                        <path d="M17.5,17 C16.6710938,17 16,17.4181405 16,17.9346098 L16,19.0653902 C16,19.5818595 16.6710938,20 17.5,20 C18.3281252,20 19,19.5818595 19,19.0653902 L19,17.9346098 C19,17.4181405 18.3281252,17 17.5,17 Z" id="Path"></path>
                        <path d="M46.3255327,38 L46.9935383,38 C47.5494237,38 48,37.5870688 48,37.077034 C48,36.5727677 47.5593783,36.1632016 47.0123996,36.154068 L47.0123996,34.922966 C47.0123996,34.412931 46.5618233,34 46.0064618,34 C45.4505764,34 45,34.412931 45,34.922966 L45,36.7842808 C45,37.4543925 45.594656,38 46.3255327,38 Z" id="Path"></path>
                        <path d="M49.8455691,41.3286749 C50.1396863,40.9247075 50.0011866,40.3899917 49.5364089,40.1343561 C49.0716311,39.8787204 48.4564231,39.9986483 48.1623059,40.4026157 C47.7794867,40.9287652 46.9308524,41.268711 45.9997407,41.268711 C45.0691476,41.268711 44.2205132,40.9287652 43.8376941,40.4026157 C43.5435769,39.9986483 42.9283688,39.8787204 42.463591,40.1343561 C41.9988133,40.3899917 41.8603138,40.9247075 42.154431,41.3286749 C42.9050262,42.3597838 44.3782057,43 45.9997407,43 C47.6212755,43 49.0949737,42.3593329 49.8455691,41.3286749 L49.8455691,41.3286749 Z" id="Path"></path>
                        <path d="M51.5,37 C52.328125,37 53,36.4815933 53,35.8412794 L53,35.1587206 C53,34.5190101 52.328125,34 51.5,34 C50.6710938,34 50,34.5190101 50,35.1587206 L50,35.8412794 C50,36.4815933 50.6710938,37 51.5,37 Z" id="Path"></path>
                        <path d="M44,35.8412794 L44,35.1587206 C44,34.5190101 43.3281252,34 42.5,34 C41.6710938,34 41,34.5190101 41,35.1587206 L41,35.8412794 C41,36.4815933 41.6710938,37 42.5,37 C43.3281252,37 44,36.4815933 44,35.8412794 Z" id="Path"></path>
                        <path d="M61.6150342,51.4658163 C61.2580708,51.0908162 60.6642709,51.0761678 60.2892395,51.4331015 C59.914208,51.7900351 59.8995583,52.3837853 60.2565218,52.7587854 C61.3567118,53.9140593 62.1243543,55.6665012 62.1243543,57.0205055 L62.1243543,62.1249994 L59.0176482,62.1249994 L59.0176482,58.9379867 C59.0176482,58.4199201 58.5976912,58.0004864 58.0800696,58.0004864 C57.5619597,58.0004864 57.1424909,58.4199201 57.1424909,58.9379867 L57.1424909,62.1249994 L35.5088394,62.1249994 L35.5088394,58.9379867 C35.5088394,58.4199201 35.0888823,58.0004864 34.5712607,58.0004864 C34.0531509,58.0004864 33.633682,58.4199201 33.633682,58.9379867 L33.633682,62.1249994 L30.5264876,62.1249994 L30.5264876,57.0205055 C30.5264876,55.3247043 31.7062742,53.1030239 33.1126422,52.1362268 C34.5517278,51.409664 36.0582019,50.7993122 37.5998353,50.3178668 C39.1644196,51.9653282 42.4156691,53 46.1777035,53 C49.9480395,53 53.2808388,51.9160118 54.818077,50.2470659 C54.8297968,50.2504839 56.1414304,50.6733357 56.7659945,50.911617 C57.2494335,51.095699 57.7914712,50.8530232 57.9760569,50.3696246 C58.1606428,49.8857378 57.9135517,49.3544876 57.4340193,49.1591751 C56.15901,48.6406201 52.8906693,47.798823 51.9906914,47.6328073 C51.3378046,47.5122018 50.7938136,47.0517524 50.864132,45.9013615 C52.8350005,45.3818301 54.6198183,44.2768493 55.9734475,42.7206964 C57.5893057,40.8622974 58.4795172,38.4814372 58.4795172,36.0156162 L58.4795172,29.4794813 C58.4795172,28.9423717 58.4316616,28.401356 58.3369271,27.8671761 C58.4931902,27.2211798 58.3691563,26.5385624 57.9819168,25.9804567 C57.8696028,25.8188356 57.7401973,25.6743043 57.5966306,25.5483277 C55.9563562,22.0903188 52.3427717,20.0077986 48.5148138,20.3383651 L44.1365166,20.3383651 C42.227665,20.1738143 40.3217433,20.6161973 38.6917237,21.5742053 L38.6917237,11.7866046 C38.6917237,8.48240433 37.2921922,5.3095517 34.852046,3.082012 C32.4114115,0.853983922 29.1250029,-0.251485177 25.8341994,0.0483196673 C24.8829476,0.134745445 23.9302309,0.224100973 22.9745844,0.236796227 C22.0213794,0.249979856 21.0759875,0.134745445 20.1281541,0.0483196673 C16.8368623,-0.251485177 13.5504536,0.853983922 11.1107957,3.082012 C8.67016126,5.3095517 7.27062968,8.48240433 7.27062968,11.7866046 L7.27062968,38.4570232 C6.34232915,38.8447186 5.42721322,39.2675703 4.52723544,39.7241135 C1.73500886,41.1415943 0,43.9672788 0,47.0986274 L0,48.303706 C0,48.8212842 0.419957119,49.2412063 0.937578685,49.2412063 C1.45520025,49.2412063 1.87515737,48.8212842 1.87515737,48.303706 L1.87515737,47.0986274 C1.87515737,44.67724 3.21657857,42.4921807 5.37593942,41.395989 C7.37268899,40.382805 9.44854683,39.5454024 11.5820268,38.8915936 C13.5226192,41.0527271 17.8838251,42.4672783 22.7865803,42.4672783 C27.7826051,42.4672783 32.1721336,41.0165942 34.0717071,38.7993084 C34.104913,38.809074 34.1381189,38.8188397 34.1713248,38.8290935 L34.1713248,44.2954039 C34.1713248,45.3666934 35.0429799,46.2382756 36.114359,46.2382756 L41.7871983,46.2382756 C41.7871983,46.8979438 41.3037594,47.469233 40.6606389,47.6323191 C34.4066962,49.2182571 32.1467409,50.5258746 32.1159765,50.5463825 C30.1729424,51.8413048 28.650842,54.6850557 28.650842,57.0205055 L28.650842,62.1249994 L8.78394031,62.1249994 L8.78394031,52.3852502 C8.78394031,51.8676719 8.36398319,51.4477499 7.84636162,51.4477499 C7.32874006,51.4477499 6.90878294,51.8676719 6.90878294,52.3852502 L6.90878294,62.1249994 L1.87515737,62.1249994 L1.87515737,52.6684534 C1.87515737,52.1508751 1.45520025,51.7309531 0.937578685,51.7309531 C0.419957119,51.7309531 0,52.1508751 0,52.6684534 L0,62.2490229 C0,63.2143553 0.78571044,64 1.75112346,64 L62.2488765,64 C63.2142896,64 64,63.2143553 64,62.2490229 L64,57.0205055 C64,55.1967746 63.0414234,52.964352 61.6150342,51.4658163 L61.6150342,51.4658163 Z M41.7085785,43.3027278 C40.3842486,42.291497 38.8064794,40.5156176 38.8064794,37.7954018 L38.7835284,31.7817281 C41.0005112,32.0478414 46.2675548,32.2446188 48.9694417,28.6816295 L49.2126262,28.6718638 C49.3161506,28.7587779 51.0282082,29.5878798 51.6517958,29.697743 C52.2211795,30.4526261 53.4180573,31.7084859 53.8624305,31.9482321 L53.8448509,37.7988198 C53.8448509,40.5156176 52.2665934,42.291497 50.9427518,43.3027278 C49.3039425,44.5551696 47.4068106,45.1542909 46.3256652,45.1840761 C45.2445197,45.1542909 43.3473879,44.5551696 41.7085785,43.3027278 L41.7085785,43.3027278 Z M46.3246885,26.2377811 L47.4019274,23.6786983 C47.5323093,23.3686395 47.9659395,23.2963739 48.1905678,23.5458857 L49.6574877,25.1747925 L48.971395,26.805164 C48.971395,26.805164 46.7807815,26.8950078 46.7807815,26.8950078 C46.4501873,26.9081914 46.1904,26.5561405 46.3246885,26.2377811 Z M53.841921,26.9360234 C53.841921,26.9360234 56.0325345,26.8461796 56.0325345,26.8461796 C56.3748484,26.8271368 56.6190094,27.1933477 56.4886275,27.5034065 L55.4118769,30.062001 C55.2790532,30.3769425 54.8503064,30.4477433 54.6227482,30.1953018 L53.1558283,28.5659068 L53.841921,26.9360234 Z M55.7356345,32.6655175 C56.2298166,32.7612206 56.6043598,33.1977441 56.6043598,33.7202053 L56.6043598,34.6718657 C56.6043598,35.1972565 56.2249335,35.6362215 55.7258681,35.7280184 L55.7356345,32.6655175 Z M51.4999276,27.6664924 L50.7718391,27.3603399 L51.3129001,26.074695 L52.0414769,26.3808475 L51.4999276,27.6664924 Z M55.2692869,40.5444262 C55.5505605,39.7314376 55.7195199,38.6328045 55.7195199,37.6147378 L55.7204965,37.6147378 C55.9837022,37.5981362 56.2376298,37.5463784 56.4778843,37.4648354 C56.2845087,38.5615155 55.8738298,39.608879 55.2692869,40.5444262 Z M55.0768879,25.0087767 L53.5997132,25.0693237 C53.4976537,24.9828978 53.3809448,24.9106321 53.2515393,24.8559446 L51.5575495,24.1430538 C51.4281442,24.0883663 51.2948322,24.0556514 51.1615202,24.0429561 C51.1615202,24.0429561 49.5148977,22.2167837 49.4787618,22.1816274 C51.6908616,22.2338736 53.7423033,23.2856316 55.0768879,25.0087767 Z M44.0095528,22.2094594 C44.0378756,22.2119008 46.1640305,22.2133657 46.1640305,22.2133657 C45.9584469,22.4223501 45.7914406,22.6713737 45.6732667,22.9516472 L44.5960278,25.5102417 C44.282525,26.2553592 44.370423,27.0966681 44.8313992,27.7607308 C45.172248,28.2514536 45.6747317,28.5854381 46.2397205,28.7123912 C43.694585,30.4448136 39.8690686,30.0580948 38.5706197,29.8608291 C38.1516393,29.7983291 37.7272873,29.9199111 37.406948,30.1967667 C37.2243154,30.3544816 37.0861202,30.5532121 37.0016404,30.773427 C36.6661632,30.7866106 36.3448471,30.8564348 36.0464822,30.9731341 L36.0464822,29.4794813 C36.0464822,27.4560432 36.8946978,25.5117066 38.3748026,24.134753 C38.3855457,24.1254757 38.3958004,24.11571 38.4055669,24.1064326 C38.411915,24.1005734 38.4182632,24.0947139 38.4246115,24.0888546 C39.9359688,22.7084831 41.9727608,22.0239125 44.0095528,22.2094594 L44.0095528,22.2094594 Z M30.3746194,35.9848544 C29.3818603,35.8022372 28.6610967,34.9345611 28.6610967,33.9223537 L28.6610967,32.853994 C29.2431768,32.5239158 29.8223271,32.1459861 30.3809677,31.7187398 C32.5139592,30.0893448 35.0566531,27.561512 35.0566531,22.2119008 L35.0586063,22.2119008 C35.6773106,22.2119008 36.3077346,22.054186 36.816078,21.7768422 L36.816078,23.0346551 C35.1299014,24.7446165 34.1713248,27.0668828 34.1713248,29.4794813 L34.1713248,36.8749914 C32.9192666,36.5180577 31.6466989,36.2192295 30.3746194,35.9848544 L30.3746194,35.9848544 Z M16.7196649,30.2289932 C14.9226391,28.8564341 12.7808577,26.4433475 12.7808577,22.7402213 L12.7481401,14.1967616 C14.664805,13.8906092 19.1715308,12.8354331 22.9809325,9.40476787 C26.7908226,12.8354331 31.2970602,13.8906092 33.2142132,14.1967616 L33.1814957,22.7436393 C33.1814957,26.4433475 31.0397143,28.8559459 29.2426885,30.2289932 C27.0276589,31.9213766 24.4502942,32.7294824 22.9809325,32.7680565 C21.5120592,32.7294824 18.9342063,31.9213766 16.7196649,30.2289932 Z M36.8165663,18.6249857 C36.8165663,19.5688336 36.0093697,20.3369002 35.0659311,20.3369002 L35.0839991,15.6596527 C36.0269493,15.6596527 36.8165663,16.4277193 36.8165663,17.3715673 L36.8165663,18.6249857 Z M36.0464822,33.7202053 C36.0464822,33.199209 36.4190721,32.763662 36.9117892,32.666494 L36.9230206,35.7275301 C36.4249319,35.6352449 36.0464822,35.1967683 36.0464822,34.6718657 L36.0464822,33.7202053 Z M12.3750621,4.46628981 C14.426992,2.59324235 17.1913841,1.6640428 19.958218,1.91550776 C20.9641618,2.00681641 21.9701056,2.12058595 22.9809325,2.1288867 C23.9912712,2.13718745 24.9996567,2.00681641 26.0041355,1.91550776 C28.7714576,1.6640428 31.5353614,2.59324235 33.5872914,4.46628981 C35.6397098,6.33982553 36.8165663,9.00779512 36.8165663,11.7866046 L36.8165663,14.2197108 C36.3077346,13.9423669 35.7246779,13.7846521 35.1059736,13.7846521 L35.0908356,13.7846521 L35.0913239,13.7016442 C35.0937655,13.0458824 34.6049549,12.4902181 33.9554864,12.4091634 C32.5686513,12.2353351 27.7430509,11.3808427 23.881887,7.68259945 C23.3764736,7.19871255 22.5853916,7.19871255 22.0804663,7.68259945 C18.2193025,11.3808427 13.3937022,12.2353351 12.006867,12.4091634 C11.3569101,12.4902181 10.8685879,13.0458824 10.8710296,13.7016442 L10.8715179,13.7846521 C10.2523253,13.7846521 9.65461888,13.9423669 9.14578705,14.2197108 L9.14578705,11.7866046 C9.14578705,9.00779512 10.3226437,6.33982553 12.3750621,4.46628981 L12.3750621,4.46628981 Z M9.14578705,17.3715673 C9.14578705,16.4277193 9.93540407,15.6596527 10.8783543,15.6596527 L10.8964222,20.3369002 C9.95347208,20.3369002 9.14578705,19.5688336 9.14578705,18.6249857 L9.14578705,17.3715673 Z M9.14578705,21.7768422 C9.65461888,22.054186 10.2845545,22.2119008 10.9037471,22.2119008 L10.9057004,22.2119008 C10.9057004,27.4370002 13.447906,30.0893448 15.5808975,31.719228 C16.1400264,32.1459861 16.7186882,32.5239158 17.3007683,32.853994 L17.3007683,33.9223537 C17.3007683,34.9345611 16.580493,35.8022372 15.5877339,35.9853426 C13.3927255,36.3896398 11.2392245,36.9726477 9.14578705,37.7280191 L9.14578705,21.7768422 Z M22.7865803,40.5922777 C18.5210856,40.5922777 15.3782437,39.530754 13.7179481,38.3027263 C14.4489665,38.1240153 15.1858447,37.965812 15.9276062,37.8290932 C17.8100884,37.4819252 19.1759257,35.6743074 19.1759257,33.7578029 C20.6150113,34.3354399 21.9637573,34.6215727 22.9609113,34.6425688 C22.9677478,34.6430571 22.9745844,34.6430571 22.9809325,34.6430571 C22.9877691,34.6430571 22.9946055,34.6430571 23.0014421,34.6425688 C23.9985961,34.6215727 25.3473421,34.3354399 26.7864278,33.7578029 C26.7864278,35.6743074 28.152265,37.4819252 30.0347471,37.8290932 C30.6793325,37.9477456 31.3234295,38.0834879 31.965085,38.2358317 C29.9751719,39.7871017 26.1130314,40.5922777 22.7865803,40.5922777 L22.7865803,40.5922777 Z M36.0464822,44.2954039 L36.0464822,37.4184486 C36.3233609,37.5273354 36.6202608,37.5952065 36.9303455,37.6147378 L36.931322,37.6147378 C36.931322,40.7338794 38.5183694,43.0424739 40.0419347,44.363275 L36.1148473,44.363275 C36.0772465,44.363275 36.0464822,44.3330015 36.0464822,44.2954039 Z M41.0009996,49.4765579 C42.4767093,49.2040968 43.5651797,47.9638622 43.6560075,46.4868108 C44.6624396,46.8583931 45.5970884,47.0439399 46.3056439,47.0590766 C46.3119922,47.0590766 46.3188286,47.0595649 46.3256652,47.0595649 C46.3320134,47.0595649 46.3388499,47.0590766 46.3456864,47.0590766 C47.054242,47.0439399 47.9884024,46.8583931 48.9948345,46.4868108 C49.0856625,47.9638622 50.1741327,49.2040968 51.6498424,49.4765579 C51.961392,49.5336868 52.2729417,49.5971634 52.5844912,49.6650345 C51.2635796,50.481441 49.0075309,51.1249959 46.1777035,51.1249959 C43.4206363,51.1249959 41.1909569,50.503902 39.8553956,49.7123979 C40.2377519,49.6254837 40.6201082,49.5468704 41.0009996,49.4765579 L41.0009996,49.4765579 Z" id="Shape"></path>
                    </g>
                </g>
                <g id="Fields" transform="translate(82.000000, 222.000000)" fill="#282828" font-family="Heebo-Medium, Heebo" font-size="30" font-weight="400" line-spacing="37">
                    <text id="אפוטרופסות">
                        <tspan x="336.967773" y="190.564453">אפוטרופסות</tspan>
                    </text>
                </g>
            </g>
        </g>
    </g>
</svg>