<?xml version="1.0" encoding="UTF-8"?>
<svg width="100px" height="80px" viewBox="0 0 100 80" version="1.1" xmlns="http://www.w3.org/2000/svg" xmlns:xlink="http://www.w3.org/1999/xlink">
    <!-- Generator: Sketch 55.2 (78181) - https://sketchapp.com -->
    <title>Practicing Areas</title>
    <desc>Created with Sketch.</desc>
    <g id="Welcome" stroke="none" stroke-width="1" fill="none" fill-rule="evenodd">
        <g id="Desktop" transform="translate(-146.000000, -736.000000)" fill="#ED4932" fill-rule="nonzero">
            <g id="Practicing-Areas" transform="translate(0.000000, 594.000000)">
                <g id="Icons" transform="translate(163.000000, 145.000000)">
                    <g id="diamond" transform="translate(5.000000, 7.000000)">
                        <path d="M58.7073136,25.972164 L48.5256512,14.3963151 C48.304029,14.1443065 47.985374,14 47.6507221,14 L11.3493947,14 C11.0147428,14 10.6960878,14.1443065 10.4744655,14.3963151 L0.292686364,25.972164 C-0.0113728232,26.3179131 -0.0855193607,26.8105498 0.10317482,27.2312679 C0.174285436,27.3898878 0.277973822,27.5269204 0.404081319,27.6363822 C0.406533409,27.6390806 0.408401669,27.642131 0.410853759,27.6449467 L28.6264721,59.6053275 C28.8480943,59.8563974 29.1660487,60 29.5,60 C29.8339513,60 30.1519057,59.8562801 30.3735279,59.6053275 L58.5891462,27.6449467 C58.5915983,27.6422483 58.5935834,27.6391979 58.5959187,27.6363822 C58.7219094,27.5269204 58.8255978,27.3897705 58.8968252,27.2312679 C59.0855194,26.8105498 59.0113728,26.3179131 58.7073136,25.972164 Z M45.5802238,16.3463306 L40.3910171,24.7517764 L32.0749283,16.3463306 L45.5802238,16.3463306 Z M37.9134718,25.5758489 L21.0865282,25.5758489 L29.5,17.0719696 L37.9134718,25.5758489 Z M26.9250717,16.3464479 L18.6089829,24.7518937 L13.4197762,16.3464479 L26.9250717,16.3464479 Z M11.1681735,17.1508103 L16.369524,25.5758489 L3.75784014,25.5758489 L11.1681735,17.1508103 Z M3.77745686,27.9222969 L17.5766529,27.9222969 L27.1089785,54.3504573 L3.77745686,27.9222969 Z M31.9343418,54.3014165 L38.5944523,36.1901235 C38.8179428,35.5822762 38.5087459,34.9075551 37.903897,34.683 C37.2986978,34.4582103 36.6272921,34.7689973 36.4039184,35.3768446 L29.5106257,54.1222652 L20.0606203,27.9222969 L55.2225431,27.9222969 L31.9343418,54.3014165 Z M42.630476,25.5758489 L47.8318265,17.1508103 L55.2421599,25.5758489 L42.630476,25.5758489 Z" id="Shape"></path>
                        <path d="M30.5,0 C29.6717,0 29,0.563436019 29,1.25851244 L29,7.74148756 C29,8.43656398 29.6717,9 30.5,9 C31.3283,9 32,8.43656398 32,7.74148756 L32,1.25851244 C32,0.563436019 31.3283,0 30.5,0 Z" id="Path"></path>
                        <path d="M40.6366734,4.3633379 C40.1522379,3.87888737 39.3669685,3.87888737 38.8821609,4.3633379 L34.3633266,8.88218822 C33.8788911,9.36663875 33.8788911,10.1521806 34.3633266,10.6366311 C34.6057305,10.8789184 34.9231877,11 35.2406449,11 C35.5581021,11 35.8755594,10.8787943 36.1178391,10.6366311 L40.6366734,6.11778076 C41.1211089,5.63333023 41.1211089,4.84778843 40.6366734,4.3633379 Z" id="Path"></path>
                        <path d="M24.6366669,8.88218822 L20.1178767,4.3633379 C19.6335566,3.87888737 18.8482734,3.87888737 18.3633331,4.3633379 C17.878889,4.84778843 17.878889,5.63333023 18.3633331,6.11778076 L22.8822474,10.6366311 C23.1245315,10.8789184 23.4419943,11 23.7594572,11 C24.07692,11 24.3943829,10.8787943 24.6366669,10.6366311 C25.121111,10.1521806 25.121111,9.36663875 24.6366669,8.88218822 Z" id="Path"></path>
                        <circle id="Oval" cx="38.5" cy="32.5" r="1.5"></circle>
                    </g>
                </g>
            </g>
        </g>
    </g>
</svg>