<?xml version="1.0" encoding="UTF-8"?>
<svg width="100px" height="80px" viewBox="0 0 100 80" version="1.1" xmlns="http://www.w3.org/2000/svg" xmlns:xlink="http://www.w3.org/1999/xlink">
    <!-- Generator: Sketch 55.2 (78181) - https://sketchapp.com -->
    <title>Practicing Areas</title>
    <desc>Created with Sketch.</desc>
    <g id="Welcome" stroke="none" stroke-width="1" fill="none" fill-rule="evenodd">
        <g id="Desktop" transform="translate(-776.000000, -1071.000000)">
            <g id="Practicing-Areas" transform="translate(0.000000, 594.000000)">
                <g id="Icons" transform="translate(163.000000, 145.000000)" fill="#ED4932" fill-rule="nonzero">
                    <g id="friends" transform="translate(628.000000, 342.000000)">
                        <path d="M41.5,36 C41.4021484,36 41.303125,35.9894521 41.2070313,35.9701142 C41.1115234,35.9507761 41.0166015,35.9220623 40.9269531,35.8845584 C40.8349609,35.8470545 40.7482422,35.8007606 40.6673829,35.7462628 C40.5847656,35.6923509 40.5080079,35.6296491 40.4394531,35.5605014 C40.3703125,35.4913535 40.3070313,35.4151738 40.253125,35.3325481 C40.1992188,35.2516802 40.1529297,35.1643665 40.1154297,35.0729508 C40.0779297,34.982707 40.0492188,34.8883613 40.0298829,34.7922575 C40.0099609,34.6961538 40,34.5971202 40,34.4998444 C40,34.4025687 40.0099609,34.3035349 40.0298829,34.2056733 C40.0492188,34.1113275 40.0779297,34.0169818 40.1154297,33.925566 C40.1529297,33.8353224 40.1992188,33.7480087 40.253125,33.6671408 C40.3070313,33.5845151 40.3703125,33.5083352 40.4394531,33.4391875 C40.7875,33.0899325 41.3060547,32.930541 41.7935546,33.0284026 C41.8884764,33.0477407 41.9828125,33.0764545 42.0742188,33.1139584 C42.1644531,33.1514623 42.2511718,33.1977562 42.3320312,33.2516681 C42.4146484,33.3073379 42.4914063,33.3700396 42.5599609,33.4391875 C42.6291014,33.5083352 42.6923828,33.5845151 42.7474609,33.6671408 C42.801953,33.7480087 42.8482421,33.8353224 42.8857421,33.925566 C42.9232421,34.0169818 42.951953,34.1113275 42.9712889,34.2056733 C42.990625,34.3035349 43,34.4025687 43,34.4998444 C43,34.5971202 42.990625,34.6961538 42.9712889,34.7922575 C42.9519531,34.8883613 42.9232421,34.982707 42.8857421,35.0729508 C42.8482421,35.1643665 42.801953,35.2516802 42.7474609,35.3325481 C42.6923828,35.4151738 42.6291014,35.4913535 42.5599609,35.5605014 C42.4908203,35.6296491 42.4146484,35.6923509 42.3320312,35.7462628 C42.2511718,35.8007606 42.1644531,35.8470545 42.0742188,35.8845584 C41.9828125,35.9220623 41.8884764,35.9507761 41.7935546,35.9701142 C41.6962889,35.9894521 41.5972655,36 41.5,36 Z" id="Path"></path>
                        <path d="M37.0105157,40 C36.7341762,40 36.4550678,39.9194646 36.2097403,39.7517747 C35.225108,39.0788084 26.5328751,33.0921671 24.6594153,30.2601927 C23.8857756,29.090776 22.8734539,27.2351543 23.0130081,24.6337537 C23.122104,22.6016164 23.9854572,20.6941433 25.4441307,19.2616077 C26.9299399,17.8031466 28.8715154,17 30.911665,17 C33.6307566,17 35.7833248,18.7144089 37.0210376,20.0095932 C38.2853321,18.72158 40.4655895,17 43.0877687,17 C45.128472,17 47.0700474,17.8031466 48.5553027,19.2616077 C50.0145302,20.6941433 50.8778834,22.6016164 50.9869793,24.6337537 C51.1265335,27.2290867 50.1153194,29.0869148 49.3416797,30.2585378 C48.9119414,30.9099913 48.0325283,31.09092 47.3785065,30.6628693 C46.7244846,30.2342671 46.5422889,29.3588593 46.972581,28.707406 C47.8763606,27.3377542 48.2302302,26.1644761 48.155469,24.7843438 C48.0087156,22.0494531 45.735422,19.8242517 43.0877687,19.8242517 C40.4849721,19.8242517 38.1823279,22.9811252 38.1596227,23.0131187 C37.8904824,23.394834 37.4474532,23.6176851 36.981165,23.6127205 C36.5126616,23.6061013 36.0779392,23.3700114 35.8193209,22.9816768 C35.7999383,22.9535447 33.6567846,19.8242517 30.911665,19.8242517 C28.2640116,19.8242517 25.990718,22.0494531 25.8439647,24.7843438 C25.7697572,26.1677857 26.1230731,27.3410638 27.0262989,28.7057511 C28.2075254,30.491318 34.2698263,35.0007434 37.8140599,37.4234219 C38.4592211,37.8647112 38.6236957,38.7439801 38.1806665,39.3866078 C37.9059884,39.785423 37.4618516,40 37.0105157,40 L37.0105157,40 Z" id="Path"></path>
                        <path d="M73,27.975784 C73,23.3134929 70.0790307,19.3359093 66.0098523,17.8565823 C63.5917042,11.0487626 58.8387548,5.39221597 52.5943397,1.90194662 C50.3631732,0.654220077 47.7213054,0.703568359 45.5274254,2.03428959 C43.3187407,3.37398338 42.0005483,5.73877542 42.0005483,8.36152439 C42.0005483,9.15446162 42.6289379,9.79711075 43.4042805,9.79711075 C44.1796233,9.79711075 44.8080127,9.15446162 44.8080127,8.36152439 C44.8080127,6.76331307 45.6124171,5.32099739 46.9596711,4.50394691 C48.29212,3.69586869 49.894897,3.66446524 51.2476342,4.42095193 C56.3964801,7.29941486 60.4223402,11.8052493 62.7483683,17.2430936 C62.6666667,17.2414112 62.5849651,17.2402897 62.5027151,17.2402897 C60.7886265,17.2402897 59.1688512,17.6625539 57.7382507,18.4111898 C56.7857965,16.4383801 55.4977624,14.614176 53.8264438,12.8662375 C53.2846909,12.299293 52.3958433,12.289199 51.8414787,12.8432456 C51.2871141,13.3978529 51.2772442,14.3068708 51.8189971,14.8738152 C53.3905192,16.5174494 54.5677899,18.2244513 55.4039976,20.0738904 C53.315946,22.0377276 52.0054303,24.8528228 52.0054303,27.975784 C52.0054303,31.0763141 53.2973026,33.8740251 55.3595825,35.8356194 C53.3779075,40.203503 49.7748121,43.6842391 45.383214,45.4456364 C43.3280623,46.2699769 42,48.2663392 42,50.5313132 C42,52.3414979 42.8734943,54.030555 44.3358981,55.0494848 C45.2384541,55.6775538 46.2901565,56 47.3511807,56 C48.0152119,56 48.682533,55.8738255 49.3191474,55.6175507 C57.0961528,52.4850565 63.1618112,46.1107165 66.0098523,38.0949855 C70.0790307,36.6156586 73,32.638075 73,27.975784 L73,27.975784 Z M48.2904749,52.9460144 C47.4904573,53.2678997 46.6257363,53.1697639 45.9167419,52.6757203 C45.2121341,52.1850413 44.8080127,51.4033198 44.8080127,50.5313132 C44.8080127,49.4720075 45.4512073,48.5024258 46.4085964,48.1182943 C51.3117892,46.152214 55.3617759,42.3266006 57.6867073,37.5129001 C59.1299195,38.2783592 60.7677899,38.7107174 62.5027151,38.7107174 C62.5849651,38.7107174 62.6666667,38.7101567 62.7483683,38.7079136 C59.9727071,45.198895 54.7942514,50.32663 48.2904749,52.9460144 L48.2904749,52.9460144 Z M62.5027151,35.8395447 C58.2630052,35.8395447 54.813443,32.3122642 54.813443,27.975784 C54.813443,23.6393037 58.2630052,20.1114624 62.5027151,20.1114624 C66.7429734,20.1114624 70.1925356,23.6393037 70.1925356,27.975784 C70.1925356,32.3122642 66.7429734,35.8395447 62.5027151,35.8395447 Z" id="Shape"></path>
                        <path d="M27.6167262,10.5543937 C29.6719142,9.73004967 31,7.7336789 31,5.46869529 C31,3.65794217 30.1264902,1.96943866 28.6640604,0.950504511 C27.1972441,-0.0712335982 25.3345242,-0.283207762 23.6812714,0.382435979 C15.9030317,3.51494367 9.83781436,9.88874982 6.98972302,17.9050757 C2.92102101,19.384409 0,23.3620095 0,28.0243204 C0,32.6866311 2.92102101,36.6636709 6.98972302,38.143004 C9.40846221,44.952535 14.155464,50.6040588 20.4054727,54.0982685 C21.4818693,54.6999836 22.6536773,55 23.8249371,55 C25.0817383,55 26.3374429,54.6545606 27.4730605,53.9659247 C29.681236,52.6262253 31,50.2608625 31,47.6381024 C31,46.8451618 30.3715993,46.2025099 29.596243,46.2025099 C28.8208865,46.2025099 28.1924859,46.8451618 28.1924859,47.6381024 C28.1924859,49.2368812 27.3880673,50.6786423 26.0407895,51.4962571 C24.7083171,52.3043386 23.1049633,52.3351815 21.7522021,51.5786914 C16.5983302,48.6979733 12.5762373,44.1949235 10.2512647,38.7564955 C10.3329677,38.7581779 10.4146708,38.7592994 10.4969222,38.7592994 C12.2318782,38.7592994 13.8692291,38.3269393 15.3119185,37.5620378 C16.2989351,39.6116824 17.5935719,41.4807565 19.173347,43.1333702 C19.4486149,43.4210495 19.8127144,43.5651695 20.1773622,43.5651695 C20.5310431,43.5651695 20.8852725,43.4294611 21.1583471,43.1563622 C21.7127215,42.6023131 21.7225917,41.6932915 21.1808292,41.1263446 C19.7057876,39.5830827 18.5169809,37.8227997 17.6396327,35.8841891 C19.7024976,33.9231473 20.9943927,31.1248636 20.9943927,28.0243204 C20.9943927,24.923777 19.7024976,22.1260541 17.640181,20.1644516 C19.6224395,15.7931847 23.2157285,12.3197238 27.6167262,10.5543937 Z M18.1868787,28.0243204 C18.1868787,32.360819 14.7372554,35.8881145 10.4974705,35.8881145 C6.25713732,35.8881145 2.80751406,32.360819 2.80751406,28.0243204 C2.80751406,23.6878216 6.25713732,20.1599654 10.4974705,20.1599654 C14.7372554,20.1599654 18.1868787,23.6878216 18.1868787,28.0243204 Z M15.3130152,18.4866029 C13.8697775,17.7211405 12.2318782,17.2887805 10.4974705,17.2887805 C10.4152191,17.2887805 10.3335161,17.289902 10.251813,17.2915843 C13.0275233,10.8011362 18.2055223,5.67337933 24.7099621,3.05398397 C25.5094456,2.73153641 26.3747302,2.83023339 27.0837372,3.3237183 C27.7883574,3.81439921 28.1924859,4.59612424 28.1924859,5.46869529 C28.1924859,6.52800547 27.54928,7.49759112 26.5918739,7.88116363 C21.678176,9.85229927 17.6385361,13.6706387 15.3130152,18.4866029 Z" id="Shape"></path>
                    </g>
                </g>
                <g id="Fields" transform="translate(82.000000, 222.000000)" fill="#282828" font-family="Heebo-Medium, Heebo" font-size="30" font-weight="400" line-spacing="37">
                    <text id="גישור">
                        <tspan x="696.612793" y="360.564453">גישור</tspan>
                    </text>
                </g>
            </g>
        </g>
    </g>
</svg>