<?xml version="1.0" encoding="UTF-8"?>
<svg width="100px" height="80px" viewBox="0 0 100 80" version="1.1" xmlns="http://www.w3.org/2000/svg" xmlns:xlink="http://www.w3.org/1999/xlink">
    <!-- Generator: Sketch 55.2 (78181) - https://sketchapp.com -->
    <title>Practicing Areas</title>
    <desc>Created with Sketch.</desc>
    <g id="Welcome" stroke="none" stroke-width="1" fill="none" fill-rule="evenodd">
        <g id="Desktop" transform="translate(-465.000000, -1071.000000)">
            <g id="Practicing-Areas" transform="translate(0.000000, 594.000000)">
                <g id="Icons" transform="translate(163.000000, 145.000000)" fill="#ED4932" fill-rule="nonzero">
                    <g id="family-(1)" transform="translate(322.000000, 340.000000)">
                        <path d="M59.4047241,36.1537501 L59.4047241,25.7284515 C59.4047241,19.0132819 53.9449997,13.5500522 47.2341385,13.5500522 C40.523758,13.5500522 35.0640335,19.0132819 35.0640335,25.7284515 L35.0640335,36.1527882 C34.3733367,36.885291 33.7643509,37.6966712 33.253418,38.574424 C31.6509246,34.1279446 27.4971313,30.8915619 22.5690079,30.6400197 C23.8340836,29.2769777 24.609375,27.4536566 24.609375,25.4514183 L24.609375,19.6029393 C24.609375,19.5610959 24.6069718,19.5202142 24.6031266,19.4793325 C26.3219376,18.2115208 27.4394531,16.1732105 27.4394531,13.8775862 L27.4394531,12.2312587 C27.4394531,11.5511806 26.8886262,11 26.2089844,11 L15.3193359,11 C12.0287933,11 9.3515625,13.6789496 9.3515625,16.9716048 L9.3515625,25.4514183 C9.3515625,27.4526948 10.1263733,29.2755348 11.390007,30.6385767 C5.05453491,30.9622631 0,36.2220465 0,42.6404635 L0,61.7687413 C0,62.4488194 0.550826965,63 1.23046875,63 L61.7695313,63 C62.449173,63 63,62.4488194 63,61.7687413 L63,45.2131209 C63,41.710767 61.6325455,38.5229612 59.4047241,36.1537501 Z M47.2341385,16.0125697 C52.5881194,16.0125697 56.9437866,20.3710332 56.9437866,25.7284515 L56.9437866,34.0986061 C55.5758514,33.212196 54.0348816,32.5720377 52.3833618,32.240656 C53.6128693,30.9569725 54.3708573,29.2173386 54.3708573,27.303116 L54.3708573,24.3432854 C54.3708573,23.6733076 53.835411,23.1259746 53.1663437,23.1120267 C52.0113372,23.0884597 50.8933411,22.7378395 49.9382858,22.1106671 C50.1242981,21.9557979 50.3064652,21.7946761 50.4833451,21.6268209 C50.9774552,21.1598084 51.0000457,20.3806524 50.5333329,19.8862251 C50.0666199,19.3917978 49.2879639,19.3696735 48.7938538,19.8362052 C47.1187821,21.419527 44.9274902,22.2910273 42.6237259,22.2910273 L41.3278885,22.2910273 C40.6487274,22.2910273 40.0974198,22.8426889 40.0974198,23.522286 L40.0974198,27.303116 C40.0974198,29.2183005 40.856369,30.9584154 42.0868377,32.2420988 C40.4406051,32.5739616 38.8977127,33.2146009 37.524971,34.1034158 L37.524971,25.7284515 C37.524971,20.3710332 41.8806381,16.0125697 47.2341385,16.0125697 Z M51.9099198,27.303116 C51.9099198,29.8829879 49.8123551,31.9818992 47.2341385,31.9818992 C44.6564026,31.9818992 42.5583573,29.8829879 42.5583573,27.303116 L42.5583573,24.7535448 L42.6237259,24.7535448 C44.4266511,24.7535448 46.1752625,24.3346282 47.7508392,23.5439292 C48.9418945,24.5525033 50.3809661,25.2138239 51.9099198,25.4639233 L51.9099198,27.303116 Z M44.6914901,34.4444167 L49.7772674,34.4444167 C49.9868317,34.4444167 50.1954346,34.4511501 50.4021149,34.4626931 C50.1190109,35.9632897 48.7996216,37.102204 47.2187577,37.102204 C45.6393356,37.102204 44.3209075,35.9652137 44.035881,34.4665408 C44.2531357,34.453555 44.4713517,34.4444167 44.6914901,34.4444167 Z M32.7304688,51.6724197 C30.9664764,51.6724197 29.53125,50.2362719 29.53125,48.471147 C29.53125,46.7060221 30.9664764,45.2698743 32.7304688,45.2698743 C34.4944611,45.2698743 35.9296875,46.7060221 35.9296875,48.471147 C35.9296875,50.2362719 34.4944611,51.6724197 32.7304688,51.6724197 Z M20.9766082,33.0852224 C20.5445023,34.8926718 18.9174958,36.240804 16.9804688,36.240804 C15.0434417,36.240804 13.4164352,34.8926718 12.9843293,33.0852224 L20.9766082,33.0852224 Z M22.1484375,20.8341981 L22.1484375,25.4514183 C22.1484375,28.3025518 19.8302536,30.622705 16.9804688,30.622705 C14.1306839,30.622705 11.8125,28.3025518 11.8125,25.4514183 L11.8125,20.8341981 L22.1484375,20.8341981 Z M11.8125,16.9716048 C11.8125,15.036701 13.3856735,13.4625175 15.3193359,13.4625175 L24.9785156,13.4625175 L24.9785156,13.8775862 C24.9785156,16.3554944 22.963623,18.3716806 20.4873047,18.3716806 L11.8125,18.3716806 L11.8125,16.9716048 Z M2.4609375,42.6404635 C2.4609375,37.8861696 5.94950861,33.9326748 10.4998398,33.2059435 C11.0150985,36.3201624 13.7240524,38.7033214 16.9804688,38.7033214 C20.2368851,38.7033214 22.945839,36.3201624 23.4615784,33.2059435 C28.0114289,33.9326748 31.5,37.8861696 31.5,42.6404635 L31.5,42.9439496 C28.9688874,43.5076352 27.0703125,45.771035 27.0703125,48.471147 C27.0703125,50.0424448 27.7134246,51.4660877 28.7497101,52.4929381 C25.5206909,53.8857996 23.1602096,56.9187362 22.7184905,60.5374825 L9.10546875,60.5374825 L9.10546875,51.984563 C9.10546875,51.304485 8.55464179,50.7533043 7.875,50.7533043 C7.19535821,50.7533043 6.64453125,51.304485 6.64453125,51.984563 L6.64453125,60.5374825 L2.4609375,60.5374825 L2.4609375,42.6404635 Z M25.2005768,60.5374825 C25.7908172,56.9115217 28.9429321,54.1349371 32.7304688,54.1349371 C36.5180054,54.1349371 39.6701203,56.9115217 40.2603607,60.5374825 L25.2005768,60.5374825 Z M60.5390625,60.5374825 L56.3554688,60.5374825 L56.3554688,52.1649232 C56.3554688,51.4848451 55.8046418,50.9336644 55.125,50.9336644 C54.4453582,50.9336644 53.8945313,51.4848451 53.8945313,52.1649232 L53.8945313,60.5374825 L42.742447,60.5374825 C42.3007279,56.9187362 39.9402466,53.8857996 36.7112274,52.4929381 C37.7475129,51.4660877 38.390625,50.0424448 38.390625,48.471147 C38.390625,45.8426982 36.5920257,43.6269134 34.1613693,42.9910838 C34.9784774,39.0914564 37.8965149,36.0123477 41.6133957,34.8974814 C42.1026993,37.5494973 44.4290543,39.5647215 47.2187577,39.5647215 C50.0127869,39.5647215 52.3420257,37.5427639 52.8260421,34.8849764 C57.2797623,36.20377 60.5390625,40.3342582 60.5390625,45.2131209 L60.5390625,60.5374825 Z" id="Shape"></path>
                        <path d="M8,48 C8.5523438,48 9,47.5517376 9,46.9996095 C9,46.4474815 8.5523438,46 8,46 C7.4476562,46 7,46.4474815 7,46.9996095 L7,47.0011714 C7,47.5532995 7.4476562,48 8,48 Z" id="Path"></path>
                        <path d="M29.7795237,11.889115 C31.5187693,13.5336792 33.234414,14.7316505 33.3066618,14.7818737 C33.5156988,14.9271271 33.7579699,15 33.9997591,15 C34.2420301,15 34.484301,14.9271271 34.6933381,14.7818737 C34.7655859,14.7316505 36.4812306,13.5336792 38.2204762,11.889115 C40.7635991,9.48381693 42,7.44140622 42,5.64420303 C42,2.53233328 39.6885517,0 36.8472861,0 C35.8290736,0 34.8373521,0.333836723 33.9997591,0.94045437 C33.1626478,0.333836723 32.1709263,0 31.1527137,0 C28.3114482,0 26,2.53233328 26,5.64420303 C26,7.44140622 27.2364008,9.48381693 29.7795237,11.889115 L29.7795237,11.889115 Z M31.1527137,2.5210084 C31.8771184,2.5210084 32.5572112,2.85336794 33.0672807,3.45653887 C33.3013636,3.73325899 33.6418916,3.89229908 33.9997591,3.89229908 C34.3581083,3.89229908 34.6981547,3.73325899 34.9327191,3.45653887 C35.4427887,2.85336794 36.1228814,2.5210084 36.8472861,2.5210084 C38.3283663,2.5210084 39.5339414,3.92184214 39.5339414,5.64420303 C39.5339414,7.35622374 36.4956801,10.32284 33.9992775,12.1958705 C31.5033564,10.3253019 28.4660586,7.36016282 28.4660586,5.64420303 C28.4660586,3.92184214 29.6716336,2.5210084 31.1527137,2.5210084 L31.1527137,2.5210084 Z" id="Shape"></path>
                        <path d="M55,46 C54.7371094,46 54.4789062,46.1066407 54.2929688,46.2929688 C54.1070312,46.4789063 54,46.7367188 54,47 C54,47.2628907 54.1070312,47.5207032 54.2929688,47.7066407 C54.4789062,47.8929688 54.7371094,48 55,48 C55.2628906,48 55.5210938,47.8929688 55.7070312,47.7066407 C55.8929688,47.5207032 56,47.2628907 56,47 C56,46.7367188 55.8929688,46.4789063 55.7070312,46.2929688 C55.5210938,46.1066407 55.2628906,46 55,46 Z" id="Path"></path>
                    </g>
                </g>
                <g id="Fields" transform="translate(82.000000, 222.000000)" fill="#282828" font-family="Heebo-Medium, Heebo" font-size="30" font-weight="400" line-spacing="37">
                    <text id="הורות-משותפת">
                        <tspan x="321.484375" y="360.564453">הורות משותפת</tspan>
                    </text>
                </g>
            </g>
        </g>
    </g>
</svg>