<?xml version="1.0" encoding="UTF-8"?>
<svg width="100px" height="80px" viewBox="0 0 100 80" version="1.1" xmlns="http://www.w3.org/2000/svg" xmlns:xlink="http://www.w3.org/1999/xlink">
    <!-- Generator: Sketch 55.2 (78181) - https://sketchapp.com -->
    <title>Practicing Areas</title>
    <desc>Created with Sketch.</desc>
    <g id="Welcome" stroke="none" stroke-width="1" fill="none" fill-rule="evenodd">
        <g id="Desktop" transform="translate(-146.000000, -1071.000000)">
            <g id="Practicing-Areas" transform="translate(0.000000, 594.000000)">
                <g id="Icons" transform="translate(163.000000, 145.000000)" fill="#ED4932" fill-rule="nonzero">
                    <g id="dad" transform="translate(33.500000, 370.500000) scale(-1, 1) translate(-33.500000, -370.500000) translate(0.000000, 337.000000)">
                        <path d="M24.2920228,25 L25.0883191,25 C25.591643,25 26,24.5585817 26,24.0133608 C26,23.4681398 25.591643,23.0267215 25.0883191,23.0267215 L24.8233619,23.0267215 L24.8233619,20.9866392 C24.8233619,20.4414183 24.4154796,20 23.9116809,20 C23.4083571,20 23,20.4414183 23,20.9866392 L23,23.6022611 C23,24.3725591 23.5797721,25 24.2920228,25 Z" id="Path"></path>
                        <path d="M28.8438306,28.5637171 C29.1412587,28.0882412 29.0012,27.4588726 28.5311901,27.1579856 C28.0617046,26.8576291 27.4390462,26.9987861 27.1416182,27.4742619 C26.5761373,28.3779844 25.3428856,28.9622465 24,28.9622465 C22.6571143,28.9622465 21.4238626,28.3779844 20.8583819,27.4742619 C20.5609537,26.9987861 19.93882,26.8570985 19.46881,27.1579856 C18.9988,27.4588726 18.8587412,28.0882412 19.1561694,28.5637171 C20.0961894,30.0665603 21.9520993,31 24,31 C26.0479006,31 27.9038107,30.0665603 28.8438306,28.5637171 Z" id="Path"></path>
                        <path d="M30,21 C30.5526041,21 31,20.581588 31,20.0647833 L31,18.9352167 C31,18.4188993 30.5526041,18 30,18 C29.4479167,18 29,18.4188993 29,18.9352167 L29,20.0647833 C29,20.581588 29.4479167,21 30,21 Z" id="Path"></path>
                        <path d="M18,18 C17.4479167,18 17,18.4184121 17,18.9352168 L17,20.0647832 C17,20.5811009 17.4479167,21 18,21 C18.5526041,21 19,20.5811009 19,20.0647832 L19,18.9352168 C19,18.4184121 18.5526041,18 18,18 Z" id="Path"></path>
                        <path d="M48.3259233,38 L48.9917731,38 C49.5489235,38 50,37.5852423 50,37.0740294 C50,36.5700506 49.5620514,36.1601158 49.0164537,36.1480588 L49.0164537,34.9259706 C49.0164537,34.4147577 48.5648521,34 48.0082269,34 C47.4510765,34 47,34.4147577 47,34.9259706 L47,36.7822522 C47,37.4535809 47.5949588,38 48.3259233,38 L48.3259233,38 Z" id="Path"></path>
                        <path d="M49,42 C50.6212176,42 52.0944359,41.3611413 52.8448549,40.332547 C53.1403323,39.926987 53.0011922,39.3907615 52.5342648,39.1344042 C52.0673375,38.878499 51.449284,38.9992176 51.1538067,39.4038734 C50.7728648,39.9265348 49.9276012,40.2638233 49,40.2638233 C48.07292,40.2638233 47.2276564,39.9265348 46.8461934,39.4038734 C46.5507159,38.9987655 45.9331837,38.878499 45.4657352,39.1344042 C44.9988079,39.3907615 44.8596677,39.926987 45.1551452,40.332547 C45.9060852,41.3611413 47.3793036,42 49,42 L49,42 Z" id="Path"></path>
                        <path d="M53,35 C53.5526041,35 54,34.4808622 54,33.8396454 L54,33.1603546 C54,32.5197421 53.5526041,32 53,32 C52.4479167,32 52,32.5197421 52,33.1603546 L52,33.8396454 C52,34.4808622 52.4479167,35 53,35 Z" id="Path"></path>
                        <path d="M45,33.8396454 L45,33.1603546 C45,32.5197421 44.5526041,32 44,32 C43.4479165,32 43,32.5197421 43,33.1603546 L43,33.8396454 C43,34.4808622 43.4479165,35 44,35 C44.5526041,35 45,34.4808622 45,33.8396454 Z" id="Path"></path>
                        <path d="M62.7534347,49.5982589 C62.2548314,49.3840789 61.6779859,49.5660554 61.4417247,50.0537109 C61.2054634,50.5413665 61.4054161,51.136879 61.8973714,51.3648605 C64.526928,52.5834884 65.0505892,53.8920822 65.0362704,55.1383133 L65.0362704,65.0371094 L61.5005344,65.0371094 L61.5005344,58.9112549 C61.5005344,58.3694153 61.0607406,57.9298096 60.5186695,57.9298096 C59.9760869,57.9298096 59.5368047,58.3694153 59.5368047,58.9112549 L59.5368047,65.0371094 L37.6606521,65.0371094 L37.6606521,58.9112549 C37.6606521,58.3694153 37.2213699,57.9298096 36.6787873,57.9298096 C36.1362048,57.9298096 35.6969225,58.3694153 35.6969225,58.9112549 L35.6969225,65.0371094 L32.1611864,65.0371094 L32.1611864,55.1383133 C32.1611864,53.5623779 33.1660637,52.16893 34.6618734,51.6705399 C34.7078983,51.6552047 39.0086707,49.7695007 41.2388334,49.2148819 C41.5978278,50.0624008 42.3572388,50.8148422 43.4623481,51.3991089 C44.850255,52.1331482 46.6743757,52.5374832 48.5987284,52.5374832 C50.5225698,52.5374832 52.3466904,52.1331482 53.7345973,51.3991089 C54.8397066,50.8153533 55.5991176,50.0624008 55.958112,49.2148819 C56.5784255,49.369255 57.1951594,49.5430526 57.8006427,49.7347412 C58.3176559,49.8983154 58.8694434,49.6120605 59.0330875,49.0952682 C59.1967317,48.5784759 58.9103544,48.0269242 58.3933412,47.8633499 C57.4196586,47.5551147 54.961417,46.9795379 54.746634,46.9381332 C53.9248336,46.7796707 53.3224187,46.0405197 53.3280439,45.1163253 C53.7576097,44.901123 54.1820618,44.6526946 54.5906607,44.3674622 C56.1964187,43.2469788 58.0859971,41.1818542 58.3810679,37.5842438 C59.8400577,37.3455277 60.956929,36.0757828 60.956929,34.5499421 L60.956929,33.5603181 C60.956929,32.6995086 60.6015143,31.9204865 60.0297826,31.3617782 L60.0297826,29.2751847 C60.0297826,24.1404876 55.8502091,19.9632111 50.7133175,19.9632111 L46.4836279,19.9632111 C41.3467363,19.9632111 37.1671628,24.1404876 37.1671628,29.2751847 L37.1671628,31.3617782 C36.5954311,31.9204865 36.2400164,32.6995086 36.2400164,33.5603181 L36.2400164,34.5499421 C36.2400164,36.0875397 37.3737635,37.3649521 38.849629,37.5893555 C38.920712,38.4276733 39.0879359,39.1842041 39.3231743,39.8655929 C38.2799429,39.4648361 37.2203472,39.1039505 36.151035,38.7865143 L32.6874046,36.2347565 C31.8748091,35.6361771 30.8392486,35.5370102 29.9571045,35.9219207 L29.9571045,34.281578 C30.9077747,33.602745 31.7566786,32.8232117 32.5304085,32.0513459 C34.9390455,29.6478271 36.7012884,26.8333283 36.6905493,23.3430633 C38.7575792,23.3430633 40.4395342,21.6608048 40.4395342,19.5936356 L40.4395342,18.2845306 C40.4395342,17.5244217 40.2124778,16.8169632 39.8222889,16.2255402 L39.8222889,9.09983819 C39.8222889,8.10816962 39.4811931,7.1497269 38.8705959,6.38348389 C39.187145,5.49864956 39.3599942,4.5453186 39.3599942,3.55313877 L39.3599942,1.32495117 C39.3599942,0.594490084 38.76525,0 38.0344767,0 L17.3033217,0 C14.3740917,0 11.9388624,2.09732822 11.44793,4.90313721 C9.58187546,5.41941827 8.21595829,7.12825772 8.21595829,9.09983819 L8.21595829,16.225029 C7.8257694,16.816452 7.59820168,17.5244217 7.59820168,18.2845306 L7.59820168,19.5936356 C7.59820168,21.6613159 9.3220904,23.3430633 11.3896318,23.3430633 C11.4008824,26.9345398 13.1155661,29.6519165 15.6096049,32.1065521 C16.3567427,32.8421249 17.1729178,33.5838318 18.0806314,34.2365951 L18.0806314,35.9203873 C17.2000213,35.5375213 16.1654836,35.6377106 15.3533996,36.2352677 L11.8953944,38.7819137 C9.43306168,39.5123748 7.02391314,40.4718399 4.7323839,41.6347503 C1.81338151,43.1156082 0,46.068634 0,49.3411408 L0,50.539322 C0,51.0811614 0.439282258,51.5207673 0.98186481,51.5207673 C1.52444736,51.5207673 1.96372962,51.0811614 1.96372962,50.539322 L1.96372962,49.3411408 C1.96372962,46.8118743 3.36493253,44.5295028 5.62117604,43.3849944 C7.64831776,42.3565217 9.77160042,41.4946899 11.9424421,40.818924 C11.9424421,40.818924 15.7706922,46.1718903 15.7763173,46.1795578 C16.3618566,46.9984513 17.6019723,47.2622147 18.4749115,46.732132 L24.0204021,43.3645477 C24.0204021,43.3645477 29.5653814,46.7316208 29.5658927,46.732132 C30.4434344,47.2652816 31.6559352,47.030655 32.2649981,46.1795578 L36.0968278,40.8214798 C37.7455425,41.3346939 39.3681764,41.9547424 40.9314893,42.6698685 C41.4889021,43.3221207 42.0933626,43.8409577 42.6630487,44.246315 C43.0568175,44.526947 43.4613254,44.774353 43.8689015,44.9905777 C43.9839638,46.0185394 43.2721118,46.7791595 42.4503113,46.9376221 C42.2355286,46.9790268 36.4420147,48.5846101 33.9689427,49.8328857 C31.7101423,50.6190643 30.1974567,52.7414398 30.1974567,55.1383133 L30.1974567,65.0371094 L9.23668871,65.0371094 L9.23668871,57.2448425 C9.23668871,56.7024918 8.79740646,56.2633972 8.2548239,56.2633972 C7.71275258,56.2633972 7.27295909,56.7024918 7.27295909,57.2448425 L7.27295909,65.0371094 L1.96372962,65.0371094 L1.96372962,55.1306458 C1.96372962,54.588295 1.52444736,54.1492004 0.98186481,54.1492004 C0.439282258,54.1492004 0,54.588295 0,55.1306458 L0,65.1669465 C0,66.1780396 0.822823134,67 1.83383702,67 L65.166163,67 C66.1771769,67 67,66.1780396 67,65.1669465 C67,65.1669465 67,55.1413803 67,55.1383133 C67,53.8440323 66.5167384,52.5773544 65.6969836,51.5805741 C65.2827593,51.0775833 63.9925277,50.1298752 62.7534347,49.5982589 L62.7534347,49.5982589 Z M38.4758045,19.5936356 C38.4758045,20.578659 37.674971,21.3801727 36.6905493,21.3801727 L36.6844126,21.3801727 L36.6695823,16.4974822 C37.6540041,16.4974822 38.4758045,17.2989959 38.4758045,18.2840194 L38.4758045,19.5936356 Z M37.8585593,14.7211686 C37.1901752,14.4926758 36.4880397,14.5351029 36.4880397,14.5351029 C36.157683,13.2055511 35.391624,12.0605316 34.348904,11.2533951 C35.722492,10.6425476 36.9032867,9.67439277 37.7731575,8.4680329 C37.8294102,8.67198941 37.8585593,14.7211686 37.8585593,14.7211686 Z M12.4231468,6.71472168 C12.9176589,6.67433926 13.3042682,6.27204902 13.3247237,5.777237 C13.4126824,3.63850409 15.1606064,1.96289063 17.3033217,1.96289063 L37.3962646,1.96289063 L37.3962646,3.55313877 C37.3962646,7.11598965 34.496695,10.0143204 30.9323213,10.0143204 L17.3605972,10.0143204 C16.1649722,10.0143204 15.185153,10.9553833 15.1237865,12.1351624 C14.8138853,13.5086747 13.6325792,14.5351029 12.34695,14.5351029 C12.34695,14.5351029 11.1027432,14.4599609 10.1796879,14.7211686 L10.1796879,9.09983819 C10.1796879,7.86485284 11.1651325,6.8174667 12.4231468,6.71472168 Z M11.3834951,21.3801727 C10.3990734,21.3801727 9.5619313,20.578659 9.5619313,19.5936356 L9.5619313,18.2845306 C9.5619313,17.2995072 10.3837317,16.4979935 11.3686649,16.4979935 L11.3834951,21.3801727 Z M13.355407,23.8833695 L13.3318832,16.3840027 C15.1473103,15.9617767 16.6712463,14.408844 17.0655264,12.4459534 C17.1028577,12.2593766 17.0788224,11.977211 17.3600858,11.977211 L30.9844828,11.977211 C32.9446328,12.1300506 34.496695,13.6502686 34.6848858,15.6100921 C34.6889769,15.6530305 34.7283539,23.8092498 34.7283539,23.8092498 C34.6767036,26.7392731 32.9748046,28.8345565 31.1430131,30.6624984 C29.2437183,32.5579147 27.0728766,34.3183822 24.0781889,34.368988 C21.0850354,34.338829 18.901409,32.5921631 16.9872839,30.7079925 C15.1432191,28.8928299 13.4275126,26.8103256 13.355407,23.8833695 L13.355407,23.8833695 Z M24.073075,36.3318787 L24.0812572,36.3318787 L24.0965989,36.3318787 C25.5499633,36.3093872 26.8381495,35.9674149 27.9933749,35.4347763 L27.9933749,37.4600296 L24.0204021,40.9134903 L20.044361,37.4574738 L20.044361,35.4025726 C21.2358949,35.9612809 22.5675489,36.3190995 24.073075,36.3318787 L24.073075,36.3318787 Z M17.4557154,45.0544739 C17.4281004,45.0713424 17.3917918,45.063675 17.3738933,45.0376053 L13.6949686,39.8947297 L16.5183412,37.8152923 C16.8200602,37.5929337 17.227125,37.6098022 17.5099225,37.8551636 L17.5094111,37.8551636 L22.3629938,42.0738449 L17.4557154,45.0544739 Z M30.6674223,45.0376053 C30.6490123,45.063675 30.6127039,45.0713424 30.5856002,45.0544739 L25.6778103,42.0743561 L30.5308818,37.8551636 C30.8131679,37.6103134 31.2212554,37.5934448 31.5224629,37.8152923 L34.3458356,39.8947297 L30.6674223,45.0376053 Z M58.9931993,34.5499421 C58.9931993,34.9696122 58.7600064,35.3356095 58.4158424,35.5247421 L58.4035691,32.5783615 C58.7543811,32.7654496 58.9937107,33.1350251 58.9937107,33.5598068 L58.9937107,34.5499421 L58.9931993,34.5499421 Z M46.4836279,21.9255905 L50.7138288,21.9255905 C54.7681123,21.9255905 58.0660529,25.2226334 58.0660529,29.2751847 L58.0660529,30.2699203 C58.0660529,29.7362594 56.8494612,29.4648284 56.4756366,29.4801636 C56.0941411,29.4960099 54.7246443,29.345726 52.9884823,26.8363953 C52.7379023,26.473465 52.3415766,26.2516174 51.9012716,26.2275924 C51.4578983,26.205101 51.037026,26.3824768 50.7455349,26.7183151 C48.3184878,29.5159455 43.1186954,29.7004776 41.1191687,29.3544158 C40.366917,29.2245789 39.5676177,29.5578613 39.1314038,30.1983566 L39.1314038,29.2756958 C39.1314038,25.2226334 42.4293445,21.9255905 46.4836279,21.9255905 Z M38.203746,34.5499421 L38.203746,33.5603181 C38.203746,33.1360474 38.4420529,32.7669831 38.7918422,32.579895 L38.8056497,35.5380326 C38.4481895,35.3529892 38.203746,34.9793244 38.203746,34.5499421 Z M40.7744932,36.6605606 L40.7494352,31.3208847 C40.7494352,31.3147506 40.7494352,31.3050384 40.7611971,31.2953263 C40.7683565,31.2891922 40.7734704,31.2876587 40.7780729,31.2876587 C40.7806298,31.2876587 40.7826754,31.2881698 40.7847209,31.288681 C43.5272944,31.7625351 48.7674864,31.3812027 51.7662652,28.4915618 C52.7624489,29.7873764 54.4254824,31.4440765 56.4152929,31.4440765 L56.4347255,31.4440765 L56.4567152,36.6043319 C56.4567152,39.3033065 55.4508152,41.3735428 53.46663,42.7577896 C51.8363253,43.8956527 49.8521402,44.3235017 48.6421964,44.3444596 C46.9520593,44.3741073 45.1606675,43.6155319 43.8024211,42.6478882 C41.7931779,41.2171249 40.7744932,39.2041397 40.7744932,36.6605606 Z M45.7850721,45.7987366 C46.8799536,46.1509323 47.8914788,46.3012162 48.6370825,46.3073502 L48.6457761,46.3073502 L48.6606063,46.3073502 C49.4297337,46.2955933 50.3988139,46.1621781 51.4231239,45.8621216 C51.6660332,47.2197876 52.645341,48.346405 53.966256,48.7619857 C53.2564496,49.715828 51.1909538,50.5745926 48.5987284,50.5745926 C46.006503,50.5745926 43.9410072,49.715828 43.2312007,48.7619857 C44.5725713,48.340271 45.5615956,47.1850281 45.7850721,45.7987366 L45.7850721,45.7987366 Z" id="Shape"></path>
                        <path d="M56.6070725,56 L51.3934535,56 C50.6252137,56 50,56.6396017 50,57.4255208 L50,61.2620542 C50,61.8080556 50.2970949,62.2975739 50.7750756,62.5396436 C50.7750756,62.5396436 53.3795189,63.8591916 53.3810964,63.8597295 C53.7460234,64.0447782 54.2476667,64.0485438 54.6183778,63.8602675 C54.6183778,63.8602675 57.2249244,62.5396436 57.2254503,62.5396436 C57.7034311,62.2975739 58,61.8080556 58,61.2620542 L58,57.4255208 C58,56.6396017 57.3753122,56 56.6070725,56 L56.6070725,56 Z M55.9808072,60.8650602 L54,61.868304 L52.0191928,60.8650602 L52.0191928,58.0656602 L55.9808072,58.0656602 L55.9808072,60.8650602 Z" id="Shape"></path>
                    </g>
                </g>
                <g id="Fields" transform="translate(82.000000, 222.000000)" fill="#282828" font-family="Heebo-Medium, Heebo" font-size="30" font-weight="400" line-spacing="37">
                    <text id="אבהות">
                        <tspan x="61.0537109" y="360.564453">אבהות</tspan>
                    </text>
                </g>
            </g>
        </g>
    </g>
</svg>