<?xml version="1.0" encoding="UTF-8"?>
<svg width="36px" height="40px" viewBox="0 0 36 40" version="1.1" xmlns="http://www.w3.org/2000/svg" xmlns:xlink="http://www.w3.org/1999/xlink">
    <!-- Generator: Sketch 55.2 (78181) - https://sketchapp.com -->
    <title>Contact</title>
    <desc>Created with Sketch.</desc>
    <g id="Welcome" stroke="none" stroke-width="1" fill="none" fill-rule="evenodd">
        <g id="Desktop" transform="translate(-600.000000, -2653.000000)" fill="#FFFFFF" fill-rule="nonzero">
            <g id="Contact" transform="translate(0.000000, 2399.000000)">
                <g id="phone-call-(1)" transform="translate(605.000000, 262.000000)">
                    <path d="M23.733944,19.6304113 L18.8998432,14.7965286 C18.3227753,14.2195291 17.3840279,14.2195291 16.8069118,14.7965286 L15.5498519,16.0535444 C15.1559847,16.4473977 15.0314737,17.0097494 15.175307,17.5106669 L14.7010184,17.9849388 C14.7008739,17.9850833 14.7007775,17.9851797 14.7006329,17.9853242 C14.3638172,18.3225136 12.2661635,17.8050691 9.73055307,15.2695478 C7.19532809,12.7344601 6.67772086,10.6372175 7.01453659,10.2997872 C7.01453659,10.2996908 7.01463296,10.2996908 7.01463296,10.2996908 L7.48935521,9.82503345 C7.62335872,9.8635322 7.76165073,9.88319114 7.9000391,9.88319114 C8.27901703,9.88319114 8.65794677,9.7389774 8.94652894,9.45050174 L10.2035888,8.19348603 C10.7806086,7.61648653 10.7806086,6.67772399 10.2035888,6.1006763 L5.3694881,1.2666973 C5.09001296,0.987231991 4.71835921,0.833333333 4.32309463,0.833333333 C3.92773368,0.833333333 3.55622449,0.987328358 3.27670117,1.2666973 L2.0195449,2.52380938 C1.6256777,2.91766274 1.5011667,3.48006259 1.64500003,3.98093189 C1.64500003,3.98093189 1.24294131,4.38683117 1.22294438,4.41246488 C-0.114344151,5.89888307 -0.365245366,8.23911597 0.521317232,11.0370938 C1.38947302,13.776673 3.26099274,16.6788239 5.79120645,19.2088041 C8.32132378,21.7388325 11.2235767,23.6102865 13.9632522,24.4785081 C15.063806,24.8272133 16.0933828,25 17.0283235,25 C18.5612447,25 19.8393134,24.5351239 20.7554618,23.6190559 L21.0192285,23.3552984 C21.1512564,23.3932672 21.2891629,23.4137452 21.4303461,23.4137452 C21.825707,23.4137452 22.1973126,23.2597502 22.4767395,22.9803813 L23.7338958,21.7232692 C24.3109156,21.1462697 24.3109156,20.207459 23.733944,19.6304113 Z M4.32309463,2.31305399 L9.15724356,7.14708117 L7.90085826,8.40477145 C7.90085826,8.40477145 7.90061733,8.40453053 7.90018366,8.40409688 L7.88211415,8.386028 L5.4831092,5.98710738 L3.06598655,3.57016606 L4.32309463,2.31305399 Z M19.7091165,22.572651 C19.7090201,22.5727474 19.708972,22.5727956 19.7088756,22.5728919 C18.6442681,23.6373175 16.762533,23.8131397 14.4103643,23.0677383 C11.8925824,22.269913 9.2032124,20.527784 6.83774447,18.1623511 C4.47218016,15.7969181 2.72998997,13.107739 1.93218483,10.5899975 C1.18675717,8.23781501 1.36258558,6.35609796 2.42728949,5.2913833 L2.42738586,5.29128693 L2.56085933,5.15781815 L6.31242758,8.90920634 L5.96833586,9.25328596 C5.96809493,9.25352688 5.96790219,9.25381598 5.96761308,9.25410508 C4.54204895,10.6814019 6.25494243,13.8868209 8.68420779,16.3160008 C10.5024345,18.1341636 12.7555341,19.5510528 14.3725387,19.5510528 C14.9162624,19.5510528 15.3880936,19.390842 15.7471709,19.0317291 C15.7473155,19.0315846 15.7474119,19.0314882 15.7475564,19.0313436 L16.0912627,18.6876495 L19.8428309,22.4390377 L19.7091165,22.572651 Z M21.4304424,21.9339765 L16.5962935,17.0999974 L17.8533534,15.8429817 L22.6875023,20.6768643 C22.6875023,20.6768643 21.4308761,21.9344101 21.4304424,21.9339765 Z" id="Shape"></path>
                    <path d="M18.6131047,6.38702931 C17.1812067,4.95513978 15.2775163,4.16666667 13.2527894,4.16666667 C12.8370296,4.16666667 12.5,4.50369431 12.5,4.91945162 C12.5,5.33520892 12.8370787,5.67223657 13.2527894,5.67223657 C14.8754338,5.67213852 16.4009648,6.30413277 17.5485323,7.45159548 C18.6959527,8.59900916 19.3278036,10.1245311 19.3277546,11.747117 C19.3277546,12.1628743 19.6647842,12.5 20.080544,12.5 C20.4962547,12.5 20.8333333,12.1629724 20.8333333,11.7473131 C20.8333333,9.72250001 20.0448066,7.81891884 18.6131047,6.38702931 Z" id="Path"></path>
                    <path d="M21.5657739,3.43440507 C19.3509038,1.21961797 16.4063162,0 13.2743448,0 C12.8466801,0 12.5,0.346733364 12.5,0.77435101 C12.5,1.20201908 12.8467306,1.54870202 13.2743448,1.54870202 C15.99267,1.54860117 18.5483204,2.6072574 20.4706177,4.52946931 C22.3927636,6.4516308 23.4513609,9.00730177 23.4513105,11.725649 C23.4513105,12.1533171 23.7979906,12.5 24.2256552,12.5 C24.6532694,12.5 25,12.1533171 25,11.7257498 C25,8.5936523 23.7803919,5.64914174 21.5657739,3.43440507 Z" id="Path"></path>
                    <path d="M15.6497146,9.35026332 C14.9843546,8.68491775 14.1356202,8.33333333 13.1949497,8.33333333 C13.1949497,8.33333333 13.1947235,8.33333333 13.1946782,8.33333333 C12.8109628,8.33342382 12.4999095,8.64442514 12.5,9.02817743 C12.5000905,9.41188447 12.8111891,9.72293103 13.1948592,9.72284055 C13.1949497,9.72284055 13.1949949,9.72284055 13.1950854,9.72284055 C13.7671521,9.72284055 14.2625299,9.92806341 14.6672838,10.3327633 C15.0662917,10.7318077 15.2772198,11.2410192 15.2771293,11.8051559 C15.2770388,12.1888629 15.5881826,12.4999095 15.9718075,12.5 L15.971898,12.5 C16.3556133,12.5 16.6665762,12.1889534 16.6666667,11.8053369 C16.6667119,10.8646416 16.3151199,10.0156994 15.6497146,9.35026332 Z" id="Path"></path>
                </g>
            </g>
        </g>
    </g>
</svg>