<?xml version="1.0" encoding="UTF-8"?>
<svg width="100px" height="80px" viewBox="0 0 100 80" version="1.1" xmlns="http://www.w3.org/2000/svg" xmlns:xlink="http://www.w3.org/1999/xlink">
    <!-- Generator: Sketch 55.2 (78181) - https://sketchapp.com -->
    <title>Practicing Areas</title>
    <desc>Created with Sketch.</desc>
    <g id="Welcome" stroke="none" stroke-width="1" fill="none" fill-rule="evenodd">
        <g id="Desktop" transform="translate(-146.000000, -901.000000)">
            <g id="Practicing-Areas" transform="translate(0.000000, 594.000000)">
                <g id="Icons" transform="translate(163.000000, 145.000000)" fill="#ED4932" fill-rule="nonzero">
                    <g id="debt" transform="translate(5.000000, 172.000000)">
                        <path d="M57.1153846,25 L37.8846154,25 C36.2914663,25 35,26.3826287 35,28.0882353 L35,56.9117647 C35,58.6173713 36.2914663,60 37.8846154,60 L57.1153846,60 C58.7085337,60 60,58.6173713 60,56.9117647 L60,28.0882353 C60,26.3826287 58.7085337,25 57.1153846,25 Z M46.5384615,57.9411765 L37.8846154,57.9411765 C37.3536058,57.9411765 36.9230769,57.4802574 36.9230769,56.9117647 L36.9230769,49.7058824 L46.5384615,49.7058824 L46.5384615,57.9411765 Z M46.5384615,47.6470588 L36.9230769,47.6470588 L36.9230769,39.4117647 L46.5384615,39.4117647 L46.5384615,47.6470588 Z M58.0769231,56.9117647 C58.0769231,57.4802574 57.6463942,57.9411765 57.1153846,57.9411765 L48.4615385,57.9411765 L48.4615385,49.7058824 L58.0769231,49.7058824 L58.0769231,56.9117647 Z M58.0769231,47.6470588 L48.4615385,47.6470588 L48.4615385,39.4117647 L58.0769231,39.4117647 L58.0769231,47.6470588 Z M58.0769231,37.3529412 L36.9230769,37.3529412 L36.9230769,28.0882353 C36.9230769,27.5197426 37.3536058,27.0588235 37.8846154,27.0588235 L57.1153846,27.0588235 C57.6463942,27.0588235 58.0769231,27.5197426 58.0769231,28.0882353 L58.0769231,37.3529412 Z" id="Shape"></path>
                        <path d="M54,31 L38,31 C37.44775,31 37,31.44775 37,32 L37,36 C37,36.55225 37.44775,37 38,37 L54,37 C54.55225,37 55,36.55225 55,36 L55,32 C55,31.44775 54.55225,31 54,31 Z M53,35 L39,35 L39,33 L53,33 L53,35 Z" id="Shape"></path>
                        <polygon id="Path" points="41 43 41 41 39 41 39 43 37 43 37 45 39 45 39 47 41 47 41 45 43 45 43 43"></polygon>
                        <rect id="Rectangle" x="50" y="42" width="6" height="3"></rect>
                        <polygon id="Path" points="43 51.5 41.5 50 40 51.5 38.5 50 37 51.5 38.5 53 37 54.5 38.5 56 40 54.5 41.5 56 43 54.5 41.5 53"></polygon>
                        <rect id="Rectangle" x="50" y="53" width="6" height="3"></rect>
                        <rect id="Rectangle" x="51" y="55" width="3" height="1"></rect>
                        <rect id="Rectangle" x="51" y="52" width="3" height="1"></rect>
                        <path d="M40,0 L11,0 L11,0.009 C10.736,0.005875 10.4815,0.108125 10.293,0.293 L0.293,10.293 C0.107875,10.481375 0.005625,10.735875 0.009,11 L0,11 L0,58 C0,59.104625 0.895375,60 2,60 L32,60 L32,58 L26,58 L26,55 L28,55 C28.55225,55 29,54.55225 29,54 L29,49 C29,48.44775 28.55225,48 28,48 L26,48 L26,45 L28,45 C28.55225,45 29,44.55225 29,44 L29,39 C29,38.44775 28.55225,38 28,38 L27.974,38 C30.504375,36.119 31.997,33.152875 32,30 C32.01075,24.477125 27.54225,19.991375 22.0195,19.980625 C16.49675,19.969875 12.01075,24.438375 12,29.961125 C11.993875,33.127 13.487125,36.10875 16.026,38 L8,38 C7.44775,38 7,38.44775 7,39 L7,43 L5,43 C4.44775,43 4,43.44775 4,44 L4,49 C4,49.55225 4.44775,50 5,50 L7,50 L7,53 L5,53 C4.44775,53 4,53.44775 4,54 L4,58 L2,58 L2,12 L10,12 C11.104625,12 12,11.104625 12,10 L12,2 L40,2 L40,24 L42,24 L42,2 C42,0.895375 41.104625,0 40,0 Z M27,50 L27,53 L9,53 L9,50 L27,50 Z M14,30 C14,25.58175 17.58175,22 22,22 C26.41825,22 30,25.58175 30,30 C30,34.41825 26.41825,38 22,38 C17.58375,37.995 14.005,34.41625 14,30 Z M9,40 L27,40 L27,43 L9,43 L9,40 Z M6,48 L6,45 L24,45 L24,48 L8,48 L6,48 Z M6,55 L24,55 L24,58 L6,58 L6,55 Z M10,10 L3.414,10 L10,3.414 L10,10 Z" id="Shape"></path>
                        <path d="M22,27 L25,27 L25,25 L23,25 L23,24 L21,24 L21,25.184 C19.440875,25.733125 18.622125,27.44225 19.171375,29.001375 C19.593875,30.200875 20.72825,31.0025 22,31 C22.55225,31 23,31.44775 23,32 C23,32.55225 22.55225,33 22,33 L19,33 L19,35 L21,35 L21,36 L23,36 L23,34.816 C24.559125,34.266875 25.377875,32.55775 24.828625,30.998625 C24.406125,29.799125 23.27175,28.9975 22,29 C21.44775,29 21,28.55225 21,28 C21,27.44775 21.44775,27 22,27 Z" id="Path"></path>
                        <path d="M55,4.79166667 L53,4.79166667 C53,4.26242708 52.55225,3.83333333 52,3.83333333 L51,3.83333333 L51,0.958333333 C51,0.42909375 50.55225,0 50,0 L46,0 C45.44775,0 45,0.42909375 45,0.958333333 L45,3.83333333 L44,3.83333333 C43.44775,3.83333333 43,4.26242708 43,4.79166667 L43,23 L45,23 L45,5.75 L51,5.75 L51,23 L53,23 L53,6.70833333 L55,6.70833333 L55,19.1666667 L57,19.1666667 L57,6.70833333 C57,5.64973437 56.104625,4.79166667 55,4.79166667 Z M49,3.83333333 L47,3.83333333 L47,1.91666667 L49,1.91666667 L49,3.83333333 Z" id="Shape"></path>
                        <rect id="Rectangle" x="15" y="7" width="17" height="3"></rect>
                        <rect id="Rectangle" x="4" y="14" width="35" height="3"></rect>
                        <rect id="Rectangle" x="4" y="18" width="12" height="3"></rect>
                        <rect id="Rectangle" x="29" y="18" width="9" height="3"></rect>
                    </g>
                </g>
                <g id="Fields" transform="translate(82.000000, 222.000000)" fill="#282828" font-family="Heebo-Medium, Heebo" font-size="30" font-weight="400" line-spacing="37">
                    <text id="הסכמי-ממון">
                        <tspan x="28.2119141" y="190.564453">הסכמי ממון</tspan>
                    </text>
                </g>
            </g>
        </g>
    </g>
</svg>