<?xml version="1.0" encoding="UTF-8"?>
<svg width="100px" height="80px" viewBox="0 0 100 80" version="1.1" xmlns="http://www.w3.org/2000/svg" xmlns:xlink="http://www.w3.org/1999/xlink">
    <!-- Generator: Sketch 55.2 (78181) - https://sketchapp.com -->
    <title>Practicing Areas</title>
    <desc>Created with Sketch.</desc>
    <g id="Welcome" stroke="none" stroke-width="1" fill="none" fill-rule="evenodd">
        <g id="Desktop" transform="translate(-774.000000, -901.000000)">
            <g id="Practicing-Areas" transform="translate(0.000000, 594.000000)">
                <g id="Icons" transform="translate(163.000000, 145.000000)" fill="#ED4932" fill-rule="nonzero">
                    <g id="transaction" transform="translate(635.000000, 172.000000)">
                        <path d="M59.0322581,20.3225806 L46.4516129,20.3225806 L46.4516129,15.483871 L48.3870968,15.483871 L48.3870968,17.4193548 C48.3870968,17.8103226 48.6222581,18.1645161 48.9841935,18.3135484 C49.1041935,18.363871 49.23,18.3870968 49.3548387,18.3870968 C49.6064516,18.3870968 49.8541935,18.2883871 50.0390323,18.1035484 L54.8777419,13.2648387 C55.256129,12.8864516 55.256129,12.2748387 54.8777419,11.8964516 L50.0390323,7.05774194 C49.7622581,6.78096774 49.346129,6.69870968 48.9841935,6.84774194 C48.6222581,6.99677419 48.3870968,7.35096774 48.3870968,7.74193548 L48.3870968,9.67741935 L46.4516129,9.67741935 L46.4516129,0.967741935 C46.4516129,0.432580645 46.0190323,0 45.483871,0 L10.6451613,0 L10.6451613,0.00870967742 C10.3935484,0.00870967742 10.1458065,0.0987096774 9.96096774,0.283548387 L0.283548387,9.96096774 C0.0987096774,10.1458065 0.00870967742,10.3935484 0.00870967742,10.6451613 L0,10.6451613 L0,59.0322581 C0,59.5674194 0.432580645,60 0.967741935,60 L45.483871,60 C46.0190323,60 46.4516129,59.5674194 46.4516129,59.0322581 L46.4516129,45.483871 L55.1612903,45.483871 C55.6964516,45.483871 56.1290323,45.0512903 56.1290323,44.516129 L56.1290323,41.6129032 L59.0322581,41.6129032 C59.5674194,41.6129032 60,41.1803226 60,40.6451613 L60,21.2903226 C60,20.7551613 59.5674194,20.3225806 59.0322581,20.3225806 Z M49.3548387,11.6129032 C49.89,11.6129032 50.3225806,11.1803226 50.3225806,10.6451613 L50.3225806,10.0780645 L52.8251613,12.5806452 L50.3225806,15.0832258 L50.3225806,14.516129 C50.3225806,13.9809677 49.89,13.5483871 49.3548387,13.5483871 L37.7419355,13.5483871 L37.7419355,11.6129032 L49.3548387,11.6129032 Z M24.1935484,14.516129 L24.1935484,12.5806452 L22.2580645,12.5806452 L22.2580645,14.516129 L18.3870968,14.516129 L18.3870968,9.67741935 L28.0645161,9.67741935 L28.0645161,14.516129 L24.1935484,14.516129 Z M22.2580645,6.77419355 C22.2580645,6.24 22.6916129,5.80645161 23.2258065,5.80645161 C23.76,5.80645161 24.1935484,6.24 24.1935484,6.77419355 C24.1935484,7.3083871 23.76,7.74193548 23.2258065,7.74193548 C22.6916129,7.74193548 22.2580645,7.3083871 22.2580645,6.77419355 Z M25.9509677,7.74193548 C26.0593548,7.43806452 26.1290323,7.11483871 26.1290323,6.77419355 C26.1290323,5.17354839 24.8264516,3.87096774 23.2258065,3.87096774 C21.6251613,3.87096774 20.3225806,5.17354839 20.3225806,6.77419355 C20.3225806,7.11483871 20.3922581,7.43806452 20.5006452,7.74193548 L16.4516129,7.74193548 L16.4516129,6.34354839 L23.2258065,2.10967742 L30,6.34354839 L30,7.74193548 L25.9509677,7.74193548 Z M9.67741935,3.30387097 L9.67741935,9.67741935 L3.30387097,9.67741935 L9.67741935,3.30387097 Z M44.516129,58.0645161 L1.93548387,58.0645161 L1.93548387,11.6129032 L10.6451613,11.6129032 C11.1803226,11.6129032 11.6129032,11.1803226 11.6129032,10.6451613 L11.6129032,1.93548387 L19.8512903,1.93548387 L14.9709677,4.98580645 C14.6883871,5.16290323 14.516129,5.47258065 14.516129,5.80645161 L14.516129,8.70967742 C14.516129,9.24483871 14.9487097,9.67741935 15.483871,9.67741935 L16.4516129,9.67741935 L16.4516129,14.516129 L14.516129,14.516129 L14.516129,16.4516129 L31.9354839,16.4516129 L31.9354839,14.516129 L30,14.516129 L30,9.67741935 L30.9677419,9.67741935 C31.5029032,9.67741935 31.9354839,9.24483871 31.9354839,8.70967742 L31.9354839,5.80645161 C31.9354839,5.47258065 31.7632258,5.16290323 31.4806452,4.98580645 L26.6003226,1.93548387 L44.516129,1.93548387 L44.516129,9.67741935 L36.7741935,9.67741935 C36.2390323,9.67741935 35.8064516,10.11 35.8064516,10.6451613 L35.8064516,14.516129 C35.8064516,15.0512903 36.2390323,15.483871 36.7741935,15.483871 L44.516129,15.483871 L44.516129,20.3225806 L26.1290323,20.3225806 C25.593871,20.3225806 25.1612903,20.7551613 25.1612903,21.2903226 L25.1612903,24.1935484 L22.2580645,24.1935484 C21.7229032,24.1935484 21.2903226,24.626129 21.2903226,25.1612903 L21.2903226,44.516129 C21.2903226,45.0512903 21.7229032,45.483871 22.2580645,45.483871 L44.516129,45.483871 L44.516129,58.0645161 Z M54.1935484,43.5483871 L23.2258065,43.5483871 L23.2258065,26.1290323 L54.1935484,26.1290323 L54.1935484,43.5483871 Z M58.0645161,39.6774194 L56.1290323,39.6774194 L56.1290323,25.1612903 C56.1290323,24.626129 55.6964516,24.1935484 55.1612903,24.1935484 L27.0967742,24.1935484 L27.0967742,22.2580645 L58.0645161,22.2580645 L58.0645161,39.6774194 Z" id="Shape"></path>
                        <path d="M37,43 L39,43 L39,40.8571429 C40.654,40.8571429 42,39.415 42,37.6428571 C42,35.8707143 40.654,34.4285714 39,34.4285714 L37,34.4285714 C36.448,34.4285714 36,33.9485714 36,33.3571429 C36,32.7657143 36.448,32.2857143 37,32.2857143 L42,32.2857143 L42,30.1428571 L39,30.1428571 L39,28 L37,28 L37,30.1428571 C35.346,30.1428571 34,31.585 34,33.3571429 C34,35.1292857 35.346,36.5714286 37,36.5714286 L39,36.5714286 C39.552,36.5714286 40,37.0514286 40,37.6428571 C40,38.2342857 39.552,38.7142857 39,38.7142857 L34,38.7142857 L34,40.8571429 L37,40.8571429 L37,43 Z" id="Path"></path>
                        <path d="M10.6501544,47.0001419 L10.6501544,45.0001735 C10.6501544,44.5961799 10.4193073,44.2301856 10.0640117,44.0761881 C9.70966613,43.9211905 9.30022125,44.0071891 9.02852464,44.2931846 L4.27858402,49.2931058 C3.90713866,49.6840996 3.90713866,50.3160896 4.27858402,50.7070835 L9.02852464,55.7070046 C9.20997238,55.8980016 9.45316934,56 9.70016625,56 C9.82271472,56 9.94621317,55.9760004 10.0640117,55.9240012 C10.4193073,55.7700036 10.6501544,55.4040094 10.6501544,55.0000158 L10.6501544,53.0000473 L22.0500119,53.0000473 C22.5753553,53.0000473 23,52.5530544 23,52.0000631 L23,48.0001262 C23,47.4471349 22.5753553,47.0001419 22.0500119,47.0001419 L10.6501544,47.0001419 Z M21.1000237,51.0000789 L9.70016625,51.0000789 C9.17482281,51.0000789 8.75017812,51.4470718 8.75017812,52.0000631 L8.75017812,52.5860538 L6.29350883,50.0000946 L8.75017812,47.4141354 L8.75017812,48.0001262 C8.75017812,48.5531174 9.17482281,49.0001104 9.70016625,49.0001104 L21.1000237,49.0001104 L21.1000237,51.0000789 Z" id="Shape"></path>
                        <path d="M26,43 L31,43 L31,40.8571429 L27,40.8571429 L27,28 L25,28 L25,41.9285714 C25,42.5210714 25.447,43 26,43 Z" id="Path"></path>
                        <path d="M49,43 L51,43 L51,29.0714286 C51,28.4789286 50.553,28 50,28 L45,28 L45,30.1428571 L49,30.1428571 L49,43 Z" id="Path"></path>
                        <rect id="Rectangle" x="5" y="18" width="18" height="2"></rect>
                        <rect id="Rectangle" x="5" y="22" width="15" height="2"></rect>
                        <rect id="Rectangle" x="5" y="26" width="15" height="2"></rect>
                        <rect id="Rectangle" x="5" y="30" width="15" height="2"></rect>
                        <rect id="Rectangle" x="33" y="54" width="10" height="2"></rect>
                        <rect id="Rectangle" x="33" y="50" width="10" height="2"></rect>
                    </g>
                </g>
                <g id="Fields" transform="translate(82.000000, 222.000000)" fill="#282828" font-family="Heebo-Medium, Heebo" font-size="30" font-weight="400" line-spacing="37">
                    <text id="תביעות-רכוש">
                        <tspan x="662" y="194">תביעות רכוש</tspan>
                    </text>
                </g>
            </g>
        </g>
    </g>
</svg>